<mxfile host="www.draw.io" modified="2020-02-23T13:49:08.116Z" agent="Mozilla/5.0 (Macintosh; Intel Mac OS X 10_13_6) AppleWebKit/537.36 (KHTML, like Gecko) Chrome/80.0.3987.116 Safari/537.36" etag="d-U76K_8ftmjWhpyLJZR" version="12.7.4" type="github">
  <diagram id="q0Qemogr2p76Ejr7fHuv" name="Page-1">
    <mxGraphModel dx="1186" dy="679" grid="1" gridSize="10" guides="1" tooltips="1" connect="1" arrows="1" fold="1" page="1" pageScale="1" pageWidth="827" pageHeight="1169" math="0" shadow="0">
      <root>
        <mxCell id="0" />
        <mxCell id="1" parent="0" />
        <mxCell id="BkMy49ze9qn0hu9Yu05o-1" value="" style="rounded=1;whiteSpace=wrap;html=1;" parent="1" vertex="1">
          <mxGeometry x="170" y="400" width="480" height="100" as="geometry" />
        </mxCell>
        <mxCell id="BkMy49ze9qn0hu9Yu05o-2" value="system service" style="text;html=1;strokeColor=none;fillColor=none;align=center;verticalAlign=middle;whiteSpace=wrap;rounded=0;" parent="1" vertex="1">
          <mxGeometry x="100" y="427.5" width="40" height="20" as="geometry" />
        </mxCell>
        <mxCell id="BkMy49ze9qn0hu9Yu05o-3" value="redis" style="shape=image;verticalLabelPosition=bottom;labelBackgroundColor=#ffffff;verticalAlign=top;aspect=fixed;imageAspect=0;image=data:image/svg+xml,PHN2ZyB4bWxuczpjYz0iaHR0cDovL2NyZWF0aXZlY29tbW9ucy5vcmcvbnMjIiB4bWxuczpkYz0iaHR0cDovL3B1cmwub3JnL2RjL2VsZW1lbnRzLzEuMS8iIHhtbG5zOmlua3NjYXBlPSJodHRwOi8vd3d3Lmlua3NjYXBlLm9yZy9uYW1lc3BhY2VzL2lua3NjYXBlIiB4bWxuczpyZGY9Imh0dHA6Ly93d3cudzMub3JnLzE5OTkvMDIvMjItcmRmLXN5bnRheC1ucyMiIHhtbG5zOnNvZGlwb2RpPSJodHRwOi8vc29kaXBvZGkuc291cmNlZm9yZ2UubmV0L0RURC9zb2RpcG9kaS0wLmR0ZCIgeG1sbnM6c3ZnPSJodHRwOi8vd3d3LnczLm9yZy8yMDAwL3N2ZyIgeG1sbnM9Imh0dHA6Ly93d3cudzMub3JnLzIwMDAvc3ZnIiB4bWxuczp4bGluaz0iaHR0cDovL3d3dy53My5vcmcvMTk5OS94bGluayIgdmVyc2lvbj0iMS4xIiBpZD0ic3ZnMTAzNDc0IiBpbmtzY2FwZTp2ZXJzaW9uPSIwLjkyLjMgKDI0MDU1NDYsIDIwMTgtMDMtMTEpIiBzb2RpcG9kaTpkb2NuYW1lPSJyZWRpcy5zdmciIHg9IjBweCIgeT0iMHB4IiB2aWV3Qm94PSIwIDAgMzcuNTEgMzEuNiIgc3R5bGU9ImVuYWJsZS1iYWNrZ3JvdW5kOm5ldyAwIDAgMzcuNTEgMzEuNjsiIHhtbDpzcGFjZT0icHJlc2VydmUiPiYjeGE7PHNvZGlwb2RpOm5hbWVkdmlldyBib3JkZXJjb2xvcj0iIzY2NjY2NiIgYm9yZGVyb3BhY2l0eT0iMSIgZml0LW1hcmdpbi1ib3R0b209IjAiIGZpdC1tYXJnaW4tbGVmdD0iMCIgZml0LW1hcmdpbi1yaWdodD0iMCIgZml0LW1hcmdpbi10b3A9IjAiIGdyaWR0b2xlcmFuY2U9IjEwIiBndWlkZXRvbGVyYW5jZT0iMTAiIGlkPSJuYW1lZHZpZXcxMDM0NzYiIGlua3NjYXBlOmN1cnJlbnQtbGF5ZXI9InN2ZzEwMzQ3NCIgaW5rc2NhcGU6Y3g9IjI1LjAwNTA2MyIgaW5rc2NhcGU6Y3k9IjIxLjA2NDU5MiIgaW5rc2NhcGU6cGFnZW9wYWNpdHk9IjAiIGlua3NjYXBlOnBhZ2VzaGFkb3c9IjIiIGlua3NjYXBlOndpbmRvdy1oZWlnaHQ9IjEwMTciIGlua3NjYXBlOndpbmRvdy1tYXhpbWl6ZWQ9IjEiIGlua3NjYXBlOndpbmRvdy13aWR0aD0iMTkyMCIgaW5rc2NhcGU6d2luZG93LXg9Ii04IiBpbmtzY2FwZTp3aW5kb3cteT0iLTgiIGlua3NjYXBlOnpvb209IjE5LjY0MjUwNCIgb2JqZWN0dG9sZXJhbmNlPSIxMCIgcGFnZWNvbG9yPSIjZmZmZmZmIiBzaG93Z3JpZD0iZmFsc2UiPiYjeGE7CTwvc29kaXBvZGk6bmFtZWR2aWV3PiYjeGE7PGcgaWQ9ImcxMDM0NzIiIHRyYW5zZm9ybT0idHJhbnNsYXRlKC0wLjc0NjgyNzEsLTAuNzUxNjI1KSI+JiN4YTsJPHRpdGxlIGlkPSJ0aXRsZTEwMzM4OCI+UGFnZS0xPC90aXRsZT4mI3hhOwk8ZyBpZD0iZ3JvdXAzNzc2LTEiIHRyYW5zZm9ybT0idHJhbnNsYXRlKDAuNDA3MjksLTAuNjA5Mzc1KSI+JiN4YTsJCTx0aXRsZSBpZD0idGl0bGUxMDMzOTAiPlJlZGlzLjYzNjwvdGl0bGU+JiN4YTsJCTxnIGlkPSJncm91cDM3NzctMiI+JiN4YTsJCQk8dGl0bGUgaWQ9InRpdGxlMTAzMzkyIj5TaGVldC4zNzc3PC90aXRsZT4mI3hhOwkJCTxnIGlkPSJzaGFwZTM3NzgtMyIgdHJhbnNmb3JtPSJ0cmFuc2xhdGUoMC4yMzcpIj4mI3hhOwkJCQk8dGl0bGUgaWQ9InRpdGxlMTAzMzk0Ij5TaGVldC4zNzc4PC90aXRsZT4mI3hhOwkJCQk8cGF0aCBpZD0icGF0aDEwMzM5NiIgaW5rc2NhcGU6Y29ubmVjdG9yLWN1cnZhdHVyZT0iMCIgc3R5bGU9ImZpbGw6I0JBMTQxQTsiIGQ9Ik0wLjExLDI1LjE5Yy0wLjA2LDAuNCwwLjI4LDAuOCwxLjAyLDEuMTEgICAgICBsMTUuMjQsNi4yNGMxLjM3LDAuNTYsMy42LDAuNTYsNC45NywwbDE1LjI0LTYuMjRjMC43NC0wLjMxLDEuMDgtMC43MSwxLjAyLTEuMTF2LTMuNThjMC4wNSwwLjM5LTAuMjksMC43OS0xLjAyLDEuMDkgICAgICBsLTE1LjI0LDYuMjRjLTEuMzcsMC41Ni0zLjYsMC41Ni00Ljk3LDBMMS4xMywyMi43Yy0wLjgtMC4zMy0xLjEzLTAuNzgtMS0xLjJMMC4xMSwyNS4xOXoiLz4mI3hhOwkJCTwvZz4mI3hhOwkJCTxnIGlkPSJzaGFwZTM3NzktNSIgdHJhbnNmb3JtPSJ0cmFuc2xhdGUoMCwtMy42KSI+JiN4YTsJCQkJPHRpdGxlIGlkPSJ0aXRsZTEwMzM5OSI+U2hlZXQuMzc3OTwvdGl0bGU+JiN4YTsJCQkJPHBhdGggaWQ9InBhdGgxMDM0MDEiIGlua3NjYXBlOmNvbm5lY3Rvci1jdXJ2YXR1cmU9IjAiIHN0eWxlPSJmaWxsOiNCQTE0MUE7IiBkPSJNMzYuODEsMjQuMjZjMS4zOCwwLjU3LDEuMzgsMS40OCwwLDIuMDQgICAgICBsLTE1LjIzLDYuMjRjLTEuMzcsMC41Ni0zLjYsMC41Ni00Ljk3LDBMMS4zNywyNi4zQzAsMjUuNzQsMCwyNC44MywxLjM3LDI0LjI2bDE1LjI0LTYuMjRjMS4zNy0wLjU2LDMuNi0wLjU2LDQuOTcsMCAgICAgIEwzNi44MSwyNC4yNnoiLz4mI3hhOwkJCTwvZz4mI3hhOwkJPC9nPiYjeGE7CQk8ZyBpZD0iZ3JvdXAzNzgwLTciIHRyYW5zZm9ybT0idHJhbnNsYXRlKDAsLTYuMzE5NSkiPiYjeGE7CQkJPHRpdGxlIGlkPSJ0aXRsZTEwMzQwNSI+U2hlZXQuMzc4MDwvdGl0bGU+JiN4YTsJCQk8ZyBpZD0ic2hhcGUzNzgxLTgiIHRyYW5zZm9ybT0idHJhbnNsYXRlKDAuMjM3KSI+JiN4YTsJCQkJPHRpdGxlIGlkPSJ0aXRsZTEwMzQwNyI+U2hlZXQuMzc4MTwvdGl0bGU+JiN4YTsJCQkJPHBhdGggaWQ9InBhdGgxMDM0MDkiIGlua3NjYXBlOmNvbm5lY3Rvci1jdXJ2YXR1cmU9IjAiIHN0eWxlPSJmaWxsOiNCQTE0MUE7IiBkPSJNMC4xMSwyNS4xOWMtMC4wNiwwLjQsMC4yOCwwLjgsMS4wMiwxLjExICAgICAgbDE1LjI0LDYuMjRjMS4zNywwLjU2LDMuNiwwLjU2LDQuOTcsMGwxNS4yNC02LjI0YzAuNzQtMC4zMSwxLjA4LTAuNzEsMS4wMi0xLjExdi0zLjU4YzAuMDUsMC4zOS0wLjI5LDAuNzktMS4wMiwxLjA5ICAgICAgbC0xNS4yNCw2LjI0Yy0xLjM3LDAuNTYtMy42LDAuNTYtNC45NywwTDEuMTMsMjIuN2MtMC44LTAuMzMtMS4xMy0wLjc4LTEtMS4yTDAuMTEsMjUuMTl6Ii8+JiN4YTsJCQk8L2c+JiN4YTsJCQk8ZyBpZD0ic2hhcGUzNzgyLTEwIiB0cmFuc2Zvcm09InRyYW5zbGF0ZSgwLC0zLjYpIj4mI3hhOwkJCQk8dGl0bGUgaWQ9InRpdGxlMTAzNDEyIj5TaGVldC4zNzgyPC90aXRsZT4mI3hhOwkJCQk8cGF0aCBpZD0icGF0aDEwMzQxNCIgaW5rc2NhcGU6Y29ubmVjdG9yLWN1cnZhdHVyZT0iMCIgc3R5bGU9ImZpbGw6I0JBMTQxQTsiIGQ9Ik0zNi44MSwyNC4yNmMxLjM4LDAuNTcsMS4zOCwxLjQ4LDAsMi4wNCAgICAgIGwtMTUuMjMsNi4yNGMtMS4zNywwLjU2LTMuNiwwLjU2LTQuOTcsMEwxLjM3LDI2LjNDMCwyNS43NCwwLDI0LjgzLDEuMzcsMjQuMjZsMTUuMjQtNi4yNGMxLjM3LTAuNTYsMy42LTAuNTYsNC45NywwICAgICAgTDM2LjgxLDI0LjI2eiIvPiYjeGE7CQkJPC9nPiYjeGE7CQk8L2c+JiN4YTsJCTxnIGlkPSJncm91cDM3ODMtMTIiPiYjeGE7CQkJPHRpdGxlIGlkPSJ0aXRsZTEwMzQxOCI+U2hlZXQuMzc4MzwvdGl0bGU+JiN4YTsJCQk8ZyBpZD0ic2hhcGUzNzg0LTEzIiB0cmFuc2Zvcm09InRyYW5zbGF0ZSgwLjIzNywtMTIuNjM5KSI+JiN4YTsJCQkJPHRpdGxlIGlkPSJ0aXRsZTEwMzQyMCI+U2hlZXQuMzc4NDwvdGl0bGU+JiN4YTsJCQkJPHBhdGggaWQ9InBhdGgxMDM0MjIiIGlua3NjYXBlOmNvbm5lY3Rvci1jdXJ2YXR1cmU9IjAiIHN0eWxlPSJmaWxsOiNCQTE0MUE7IiBkPSJNMC4xMSwyNS4xOWMtMC4wNiwwLjQsMC4yOCwwLjgsMS4wMiwxLjExICAgICAgbDE1LjI0LDYuMjRjMS4zNywwLjU2LDMuNiwwLjU2LDQuOTcsMGwxNS4yNC02LjI0YzAuNzQtMC4zMSwxLjA4LTAuNzEsMS4wMi0xLjExdi0zLjU4YzAuMDUsMC4zOS0wLjI5LDAuNzktMS4wMiwxLjA5ICAgICAgbC0xNS4yNCw2LjI0Yy0xLjM3LDAuNTYtMy42LDAuNTYtNC45NywwTDEuMTMsMjIuN2MtMC44LTAuMzMtMS4xMy0wLjc4LTEtMS4yTDAuMTEsMjUuMTl6Ii8+JiN4YTsJCQk8L2c+JiN4YTsJCQk8ZyBpZD0ic2hhcGUzNzg1LTE1IiB0cmFuc2Zvcm09InRyYW5zbGF0ZSgwLjIzNykiPiYjeGE7CQkJCTx0aXRsZSBpZD0idGl0bGUxMDM0MjUiPlNoZWV0LjM3ODU8L3RpdGxlPiYjeGE7CQkJCTxwYXRoIGlkPSJwYXRoMTAzNDI3IiBpbmtzY2FwZTpjb25uZWN0b3ItY3VydmF0dXJlPSIwIiBzdHlsZT0iZmlsbDojMUUxRTFFO2ZpbGwtb3BhY2l0eTowLjI1OyIgZD0iTTAuMTEsMjUuMTkgICAgICBjLTAuMDYsMC40LDAuMjgsMC44LDEuMDIsMS4xMWwxNS4yNCw2LjI0YzEuMzcsMC41NiwzLjYsMC41Niw0Ljk3LDBsMTUuMjQtNi4yNGMwLjc0LTAuMzEsMS4wOC0wLjcxLDEuMDItMS4xMXYtMy41OCAgICAgIGMwLjA1LDAuMzktMC4yOSwwLjc5LTEuMDIsMS4wOWwtMTUuMjQsNi4yNGMtMS4zNywwLjU2LTMuNiwwLjU2LTQuOTcsMEwxLjEzLDIyLjdjLTAuOC0wLjMzLTEuMTMtMC43OC0xLTEuMkwwLjExLDI1LjE5eiIvPiYjeGE7CQkJPC9nPiYjeGE7CQkJPGcgaWQ9InNoYXBlMzc4Ni0xNyIgdHJhbnNmb3JtPSJ0cmFuc2xhdGUoMC4yMzcsLTYuMzE5NSkiPiYjeGE7CQkJCTx0aXRsZSBpZD0idGl0bGUxMDM0MzAiPlNoZWV0LjM3ODY8L3RpdGxlPiYjeGE7CQkJCTxwYXRoIGlkPSJwYXRoMTAzNDMyIiBpbmtzY2FwZTpjb25uZWN0b3ItY3VydmF0dXJlPSIwIiBzdHlsZT0iZmlsbDojMUUxRTFFO2ZpbGwtb3BhY2l0eTowLjI1OyIgZD0iTTAuMTEsMjUuMTkgICAgICBjLTAuMDYsMC40LDAuMjgsMC44LDEuMDIsMS4xMWwxNS4yNCw2LjI0YzEuMzcsMC41NiwzLjYsMC41Niw0Ljk3LDBsMTUuMjQtNi4yNGMwLjc0LTAuMzEsMS4wOC0wLjcxLDEuMDItMS4xMXYtMy41OCAgICAgIGMwLjA1LDAuMzktMC4yOSwwLjc5LTEuMDIsMS4wOWwtMTUuMjQsNi4yNGMtMS4zNywwLjU2LTMuNiwwLjU2LTQuOTcsMEwxLjEzLDIyLjdjLTAuOC0wLjMzLTEuMTMtMC43OC0xLTEuMkwwLjExLDI1LjE5eiIvPiYjeGE7CQkJPC9nPiYjeGE7CQkJPGcgaWQ9InNoYXBlMzc4Ny0xOSIgdHJhbnNmb3JtPSJ0cmFuc2xhdGUoMC4yMzcsLTEyLjYzOSkiPiYjeGE7CQkJCTx0aXRsZSBpZD0idGl0bGUxMDM0MzUiPlNoZWV0LjM3ODc8L3RpdGxlPiYjeGE7CQkJCTxwYXRoIGlkPSJwYXRoMTAzNDM3IiBpbmtzY2FwZTpjb25uZWN0b3ItY3VydmF0dXJlPSIwIiBzdHlsZT0iZmlsbDojMUUxRTFFO2ZpbGwtb3BhY2l0eTowLjI1OyIgZD0iTTAuMTEsMjUuMTkgICAgICBjLTAuMDYsMC40LDAuMjgsMC44LDEuMDIsMS4xMWwxNS4yNCw2LjI0YzEuMzcsMC41NiwzLjYsMC41Niw0Ljk3LDBsMTUuMjQtNi4yNGMwLjc0LTAuMzEsMS4wOC0wLjcxLDEuMDItMS4xMXYtMy41OCAgICAgIGMwLjA1LDAuMzktMC4yOSwwLjc5LTEuMDIsMS4wOWwtMTUuMjQsNi4yNGMtMS4zNywwLjU2LTMuNiwwLjU2LTQuOTcsMEwxLjEzLDIyLjdjLTAuOC0wLjMzLTEuMTMtMC43OC0xLTEuMkwwLjExLDI1LjE5eiIvPiYjeGE7CQkJPC9nPiYjeGE7CQkJPGcgaWQ9InNoYXBlMzc4OC0yMSIgdHJhbnNmb3JtPSJ0cmFuc2xhdGUoMCwtMTYuMjM5KSI+JiN4YTsJCQkJPHRpdGxlIGlkPSJ0aXRsZTEwMzQ0MCI+U2hlZXQuMzc4ODwvdGl0bGU+JiN4YTsJCQkJPHBhdGggaWQ9InBhdGgxMDM0NDIiIGlua3NjYXBlOmNvbm5lY3Rvci1jdXJ2YXR1cmU9IjAiIHN0eWxlPSJmaWxsOiNCQTE0MUE7IiBkPSJNMzYuODEsMjQuMjZjMS4zOCwwLjU3LDEuMzgsMS40OCwwLDIuMDQgICAgICBsLTE1LjIzLDYuMjRjLTEuMzcsMC41Ni0zLjYsMC41Ni00Ljk3LDBMMS4zNywyNi4zQzAsMjUuNzQsMCwyNC44MywxLjM3LDI0LjI2bDE1LjI0LTYuMjRjMS4zNy0wLjU2LDMuNi0wLjU2LDQuOTcsMCAgICAgIEwzNi44MSwyNC4yNnoiLz4mI3hhOwkJCTwvZz4mI3hhOwkJPC9nPiYjeGE7CQk8ZyBpZD0ic2hhcGUzNzg5LTIzIiB0cmFuc2Zvcm09InRyYW5zbGF0ZSg2LjM2MTUsLTIyLjExMjMpIj4mI3hhOwkJCTx0aXRsZSBpZD0idGl0bGUxMDM0NDYiPlNoZWV0LjM3ODk8L3RpdGxlPiYjeGE7CQkJPHBhdGggaWQ9InBhdGgxMDM0NDgiIGlua3NjYXBlOmNvbm5lY3Rvci1jdXJ2YXR1cmU9IjAiIHN0eWxlPSJmaWxsOiNGRkZGRkY7IiBkPSJNOC4wNCwzMi4zM2MtMS43NCwwLjc3LTQuNTYsMC43Ny02LjMsMCAgICAgQzAsMzEuNTYsMCwzMC4zLDEuNzQsMjkuNTNjMS43NC0wLjc3LDQuNTYtMC43Nyw2LjMsMEM5Ljc3LDMwLjMsOS43OCwzMS41Niw4LjA0LDMyLjMzeiIvPiYjeGE7CQk8L2c+JiN4YTsJCTxnIGlkPSJzaGFwZTM3OTAtMjUiIHRyYW5zZm9ybT0idHJhbnNsYXRlKDEzLjIxOCwtMTcuOTg4KSI+JiN4YTsJCQk8dGl0bGUgaWQ9InRpdGxlMTAzNDUxIj5TaGVldC4zNzkwPC90aXRsZT4mI3hhOwkJCTxwYXRoIGlkPSJwYXRoMTAzNDUzIiBpbmtzY2FwZTpjb25uZWN0b3ItY3VydmF0dXJlPSIwIiBzdHlsZT0iZmlsbDojRkZGRkZGOyIgZD0iTTAsMzAuMmw4LjkyLTEuMDZMNi41MywzMy4xTDAsMzAuMnoiLz4mI3hhOwkJPC9nPiYjeGE7CQk8ZyBpZD0ic2hhcGUzNzkxLTI3IiB0cmFuc2Zvcm09InRyYW5zbGF0ZSgyMS44NjQsLTIxLjg5MSkiPiYjeGE7CQkJPHRpdGxlIGlkPSJ0aXRsZTEwMzQ1NiI+U2hlZXQuMzc5MTwvdGl0bGU+JiN4YTsJCQk8cGF0aCBpZD0icGF0aDEwMzQ1OCIgaW5rc2NhcGU6Y29ubmVjdG9yLWN1cnZhdHVyZT0iMCIgc3R5bGU9ImZpbGw6IzFFMUUxRTtmaWxsLW9wYWNpdHk6MC4yNTsiIGQ9Ik01LjM0LDMzLjFMMCwzMC43MyAgICAgbDUuMzQtMi4zN2w1LjMzLDIuMzdMNS4zNCwzMy4xeiIvPiYjeGE7CQk8L2c+JiN4YTsJCTxnIGlkPSJzaGFwZTM3OTItMjkiIHRyYW5zZm9ybT0idHJhbnNsYXRlKDIxLjg2NCwtMjEuODkxKSI+JiN4YTsJCQk8dGl0bGUgaWQ9InRpdGxlMTAzNDYxIj5TaGVldC4zNzkyPC90aXRsZT4mI3hhOwkJCTxwYXRoIGlkPSJwYXRoMTAzNDYzIiBpbmtzY2FwZTpjb25uZWN0b3ItY3VydmF0dXJlPSIwIiBzdHlsZT0iZmlsbDojMUUxRTFFO2ZpbGwtb3BhY2l0eTowLjI1OyIgZD0iTTUuMzQsMzMuMUwwLDMwLjczICAgICBsNS4zNC0yLjM3VjMzLjF6Ii8+JiN4YTsJCTwvZz4mI3hhOwkJPGcgaWQ9InNoYXBlMzc5My0zMSIgdHJhbnNmb3JtPSJ0cmFuc2xhdGUoMTMuODk2NywtMjUuNjE1NSkiPiYjeGE7CQkJPHRpdGxlIGlkPSJ0aXRsZTEwMzQ2NiI+U2hlZXQuMzc5MzwvdGl0bGU+JiN4YTsJCQk8cGF0aCBpZD0icGF0aDEwMzQ2OCIgaW5rc2NhcGU6Y29ubmVjdG9yLWN1cnZhdHVyZT0iMCIgc3R5bGU9ImZpbGw6I0ZGRkZGRjsiIGQ9Ik0zLjQ4LDMxLjU1TDAsMzEuMjRsMy4wOS0wLjc4bC0wLjQtMS41NyAgICAgbDIuNjIsMS4wN2wzLjI0LTAuNjZsLTEuNDgsMS40NGwyLjQxLDEuMTdsLTMuNTQtMC4xOEw0LjE5LDMzLjFMMy40OCwzMS41NXoiLz4mI3hhOwkJPC9nPiYjeGE7CTwvZz4mI3hhOzwvZz4mI3hhOzwvc3ZnPg==;" parent="1" vertex="1">
          <mxGeometry x="213" y="424" width="43" height="36" as="geometry" />
        </mxCell>
        <mxCell id="BkMy49ze9qn0hu9Yu05o-4" value="mysql" style="shape=image;verticalLabelPosition=bottom;labelBackgroundColor=#ffffff;verticalAlign=top;aspect=fixed;imageAspect=0;image=data:image/svg+xml,PHN2ZyB4bWxuczpjYz0iaHR0cDovL2NyZWF0aXZlY29tbW9ucy5vcmcvbnMjIiB4bWxuczpkYz0iaHR0cDovL3B1cmwub3JnL2RjL2VsZW1lbnRzLzEuMS8iIHhtbG5zOmlua3NjYXBlPSJodHRwOi8vd3d3Lmlua3NjYXBlLm9yZy9uYW1lc3BhY2VzL2lua3NjYXBlIiB4bWxuczpyZGY9Imh0dHA6Ly93d3cudzMub3JnLzE5OTkvMDIvMjItcmRmLXN5bnRheC1ucyMiIHhtbG5zOnNvZGlwb2RpPSJodHRwOi8vc29kaXBvZGkuc291cmNlZm9yZ2UubmV0L0RURC9zb2RpcG9kaS0wLmR0ZCIgeG1sbnM6c3ZnPSJodHRwOi8vd3d3LnczLm9yZy8yMDAwL3N2ZyIgeG1sbnM9Imh0dHA6Ly93d3cudzMub3JnLzIwMDAvc3ZnIiB4bWxuczp4bGluaz0iaHR0cDovL3d3dy53My5vcmcvMTk5OS94bGluayIgdmVyc2lvbj0iMS4xIiBpZD0ic3ZnOTY3NTQiIGlua3NjYXBlOnZlcnNpb249IjAuOTIuMyAoMjQwNTU0NiwgMjAxOC0wMy0xMSkiIHNvZGlwb2RpOmRvY25hbWU9ImF6dXJlX3NxbF9kYXRhYmFzZS5zdmciIHg9IjBweCIgeT0iMHB4IiB2aWV3Qm94PSIwIDAgMzEuMSAzMi42NCIgc3R5bGU9ImVuYWJsZS1iYWNrZ3JvdW5kOm5ldyAwIDAgMzEuMSAzMi42NDsiIHhtbDpzcGFjZT0icHJlc2VydmUiPiYjeGE7PHNvZGlwb2RpOm5hbWVkdmlldyBib3JkZXJjb2xvcj0iIzY2NjY2NiIgYm9yZGVyb3BhY2l0eT0iMSIgZml0LW1hcmdpbi1ib3R0b209IjAiIGZpdC1tYXJnaW4tbGVmdD0iMCIgZml0LW1hcmdpbi1yaWdodD0iMCIgZml0LW1hcmdpbi10b3A9IjAiIGdyaWR0b2xlcmFuY2U9IjEwIiBndWlkZXRvbGVyYW5jZT0iMTAiIGlkPSJuYW1lZHZpZXc5Njc1NiIgaW5rc2NhcGU6Y3VycmVudC1sYXllcj0ic3ZnOTY3NTQiIGlua3NjYXBlOmN4PSIyMC43MzI1MjciIGlua3NjYXBlOmN5PSItMS40Njk5NDMiIGlua3NjYXBlOnBhZ2VvcGFjaXR5PSIwIiBpbmtzY2FwZTpwYWdlc2hhZG93PSIyIiBpbmtzY2FwZTp3aW5kb3ctaGVpZ2h0PSIxMDE3IiBpbmtzY2FwZTp3aW5kb3ctbWF4aW1pemVkPSIxIiBpbmtzY2FwZTp3aW5kb3ctd2lkdGg9IjE5MjAiIGlua3NjYXBlOndpbmRvdy14PSItOCIgaW5rc2NhcGU6d2luZG93LXk9Ii04IiBpbmtzY2FwZTp6b29tPSI5LjQyNjIxNzkiIG9iamVjdHRvbGVyYW5jZT0iMTAiIHBhZ2Vjb2xvcj0iI2ZmZmZmZiIgc2hvd2dyaWQ9ImZhbHNlIj4mI3hhOwk8L3NvZGlwb2RpOm5hbWVkdmlldz4mI3hhOzxnIGlkPSJnOTY3NTIiIHRyYW5zZm9ybT0idHJhbnNsYXRlKC0yMC40NTA2LC0wLjc1MDYpIj4mI3hhOwk8dGl0bGUgaWQ9InRpdGxlOTY3MzIiPlBhZ2UtMTwvdGl0bGU+JiN4YTsJPGcgaWQ9Imdyb3VwMzUyMS0xIiB0cmFuc2Zvcm09InRyYW5zbGF0ZSgyMC40NTA2LC0zNS41OTA5KSI+JiN4YTsJCTx0aXRsZSBpZD0idGl0bGU5NjczNCI+QXp1cmUgU1FMIERhdGFiYXNlPC90aXRsZT4mI3hhOwkJPGcgaWQ9InNoYXBlMzUyMi0yIiB0cmFuc2Zvcm09InRyYW5zbGF0ZSg5Ljg1OTUsLTE1LjcyMzgpIj4mI3hhOwkJCTx0aXRsZSBpZD0idGl0bGU5NjczNiI+U2hlZXQuMzUyMjwvdGl0bGU+JiN4YTsJCQk8cGF0aCBpZD0icGF0aDk2NzM4IiBpbmtzY2FwZTpjb25uZWN0b3ItY3VydmF0dXJlPSIwIiBzdHlsZT0iZmlsbDojM0Y1NzY1OyIgZD0iTTAuMzIsNjguNjRjMC4xLDAuMTIsMC4yMSwwLjIsMC4zNCwwLjI2ICAgICBjMC4xMywwLjA2LDAuMjcsMC4wOCwwLjQyLDAuMDhjMC4xNCwwLDAuMjctMC4wMiwwLjM5LTAuMDhjMC4xMy0wLjA2LDAuMjQtMC4xNSwwLjM0LTAuMjdjMC4xLTAuMTIsMC4xOC0wLjI3LDAuMjQtMC40NiAgICAgYzAuMDUtMC4xOSwwLjA5LTAuNCwwLjA5LTAuNjZjMC0wLjIxLTAuMDItMC40MS0wLjA3LTAuNTljLTAuMDQtMC4xOS0wLjEtMC4zNi0wLjE5LTAuNWMtMC4wNy0wLjE0LTAuMTktMC4yNS0wLjMyLTAuMzQgICAgIGMtMC4xMi0wLjA3LTAuMjgtMC4xMi0wLjQ2LTAuMTJjLTAuMTksMC0wLjM2LDAuMDUtMC41LDAuMTJjLTAuMTQsMC4wOS0wLjI1LDAuMTktMC4zNSwwLjMzYy0wLjA4LDAuMTQtMC4xNSwwLjMtMC4xOSwwLjQ5ICAgICBDMC4wMiw2Ny4wOCwwLDY3LjI3LDAsNjcuNDhjMCwwLjI3LDAuMDMsMC41LDAuMDksMC42OVMwLjIzLDY4LjUyLDAuMzIsNjguNjR6Ii8+JiN4YTsJCTwvZz4mI3hhOwkJPGcgaWQ9InNoYXBlMzUyMy00IiB0cmFuc2Zvcm09InRyYW5zbGF0ZSgwLC0zLjgzODUpIj4mI3hhOwkJCTx0aXRsZSBpZD0idGl0bGU5Njc0MSI+U2hlZXQuMzUyMzwvdGl0bGU+JiN4YTsJCQk8cGF0aCBpZD0icGF0aDk2NzQzIiBpbmtzY2FwZTpjb25uZWN0b3ItY3VydmF0dXJlPSIwIiBzdHlsZT0iZmlsbDojM0Y1NzY1OyIgZD0iTTE0LjUzLDYyLjY2YzAuMjUsMCwwLjUsMC4wMiwwLjc1LDAuMDUgICAgIGMxLjItMi40MSwzLjYzLTMuOTksNi4zNi00LjExVjQ0LjU3YzAtMi4yNS00Ljg1LTQuMzktMTAuODMtNC4zOUM0Ljg0LDQwLjE4LDAsNDIuMjIsMCw0NC40NlY2NC43YzAsMi4wMiwzLjk3LDMuOTQsOS4xNSw0LjI4ICAgICBjLTAuMDQtMC4yOC0wLjA3LTAuNTctMC4wNy0wLjg2QzkuMDgsNjUuMTEsMTEuNTIsNjIuNjYsMTQuNTMsNjIuNjZ6IE0xOC40Miw1OC40OWgtMy43NXYtNS44aDEuNzV2NC40M2gyVjU4LjQ5eiBNMTAuODEsNDEuNzMgICAgIGM0LjI2LDAsNy43MSwxLjA1LDcuNzEsMi4zNnMtMy40NSwyLjM2LTcuNzEsMi4zNlMzLjEsNDUuNCwzLjEsNDQuMDlTNi41NSw0MS43MywxMC44MSw0MS43M3ogTTcuNTcsNTcuMTUgICAgIGMtMC4wMywwLjE0LTAuMDgsMC4yOC0wLjE2LDAuNDJjLTAuMDcsMC4xNC0wLjE3LDAuMjctMC4yOSwwLjM5QzcsNTguMDgsNi44NCw1OC4yLDYuNjUsNTguMjljLTAuMTgsMC4xLTAuNDEsMC4xNy0wLjY2LDAuMjIgICAgIEM1LjczLDU4LjU3LDUuNDMsNTguNiw1LjEsNTguNmMtMC4xOSwwLTAuMzYtMC4wMS0wLjUyLTAuMDRjLTAuMTctMC4wMi0wLjMyLTAuMDMtMC40Ni0wLjA3Yy0wLjE0LTAuMDItMC4yNy0wLjA2LTAuMzktMC4wOSAgICAgYy0wLjEyLTAuMDQtMC4yMS0wLjA4LTAuMy0wLjEyVjU2LjdjMC4xLDAuMDYsMC4yMSwwLjE0LDAuMzQsMC4yMWMwLjEyLDAuMDcsMC4yNiwwLjEzLDAuNCwwLjE5YzAuMTQsMC4wNSwwLjI4LDAuMSwwLjQ0LDAuMTMgICAgIGMwLjE1LDAuMDUsMC4yOSwwLjA2LDAuNDQsMC4wNmMwLjEyLDAsMC4yMy0wLjAxLDAuMzEtMC4wNGMwLjA3LTAuMDIsMC4xMy0wLjA1LDAuMTgtMC4wOWMwLjA0LTAuMDQsMC4wOC0wLjA4LDAuMDktMC4xMyAgICAgYzAuMDItMC4wNSwwLjAzLTAuMDksMC4wMy0wLjE0YzAtMC4wOS0wLjAzLTAuMTctMC4wNy0wLjI0Yy0wLjA0LTAuMDYtMC4xLTAuMTItMC4xOC0wLjE3Yy0wLjA5LTAuMDUtMC4xOC0wLjExLTAuMjktMC4xNSAgICAgYy0wLjExLTAuMDUtMC4yNC0wLjA5LTAuMzctMC4xNWMtMC4yNS0wLjA5LTAuNDctMC4yLTAuNjUtMC4zM2MtMC4xOC0wLjEzLTAuMzItMC4yNi0wLjQ0LTAuNDFjLTAuMTEtMC4xNS0wLjE5LTAuMzEtMC4yNC0wLjQ4ICAgICBjLTAuMDUtMC4xNi0wLjA4LTAuMzQtMC4wOC0wLjUyYzAtMC4yOSwwLjA2LTAuNTQsMC4xNy0wLjc3YzAuMTItMC4yMywwLjI4LTAuNDIsMC40OC0wLjU4YzAuMjEtMC4xNiwwLjQ2LTAuMjksMC43NS0wLjM3ICAgICBjMC4yOC0wLjA5LDAuNjEtMC4xMywwLjk2LTAuMTNjMC4yLDAsMC4zNywwLjAxLDAuNTQsMC4wMmMwLjE2LDAuMDIsMC4zMSwwLjAzLDAuNDQsMC4wNmMwLjEzLDAuMDIsMC4yNCwwLjA0LDAuMzUsMC4wNyAgICAgYzAuMSwwLjAzLDAuMiwwLjA1LDAuMjgsMC4wOHYxLjQ3Yy0wLjA5LTAuMDQtMC4xOC0wLjA5LTAuMjktMC4xNGMtMC4xLTAuMDUtMC4yMi0wLjA5LTAuMzQtMC4xMyAgICAgYy0wLjEyLTAuMDQtMC4yNS0wLjA3LTAuMzktMC4wOWMtMC4xNC0wLjAzLTAuMjgtMC4wNC0wLjQyLTAuMDRjLTAuMiwwLTAuMzUsMC4wNC0wLjQ3LDAuMTFjLTAuMTMsMC4wOC0wLjE5LDAuMTctMC4xOSwwLjMgICAgIGMwLDAuMDYsMC4wMiwwLjEyLDAuMDUsMC4xOGMwLjAyLDAuMDUsMC4wNywwLjA5LDAuMTIsMC4xM2MwLjA2LDAuMDUsMC4xNCwwLjEsMC4yMywwLjE0YzAuMSwwLjA2LDAuMjEsMC4xMSwwLjM1LDAuMTYgICAgIGMwLjI0LDAuMDksMC40NiwwLjIsMC42NywwLjMxYzAuMiwwLjExLDAuMzcsMC4yNCwwLjUyLDAuMzljMC4xNSwwLjE0LDAuMjYsMC4zMSwwLjM0LDAuNDljMC4wOCwwLjE4LDAuMTMsMC40LDAuMTMsMC42NCAgICAgQzcuNjIsNTYuODcsNy42LDU3LjAxLDcuNTcsNTcuMTV6IE04LjIxLDU2Ljg1QzguMDcsNTYuNSw4LDU2LjEsOCw1NS42N2MwLTAuNDYsMC4wNy0wLjg4LDAuMjItMS4yNSAgICAgYzAuMTUtMC4zOCwwLjM1LTAuNywwLjYyLTAuOTdjMC4yNi0wLjI4LDAuNTctMC40OSwwLjkzLTAuNjNjMC4zNy0wLjE1LDAuNzgtMC4yMywxLjIxLTAuMjNjMC40MSwwLDAuOCwwLjA3LDEuMTUsMC4yMSAgICAgYzAuMzUsMC4xNCwwLjY1LDAuMzQsMC45MSwwLjZjMC4yNSwwLjI1LDAuNDUsMC41NiwwLjU5LDAuOTNzMC4yMSwwLjc5LDAuMjEsMS4yNWMwLDAuMzMtMC4wMywwLjY0LTAuMTIsMC45MiAgICAgYy0wLjA4LDAuMjktMC4xOSwwLjU1LTAuMzQsMC43OGMtMC4xNCwwLjIzLTAuMzEsMC40My0wLjUsMC42Yy0wLjIsMC4xOC0wLjQxLDAuMzItMC42NCwwLjQybDEuOTUsMS42N2gtMi4yMmwtMS4yOC0xLjM3ICAgICBjLTAuMzctMC4wMy0wLjcyLTAuMTItMS4wNC0wLjI2Yy0wLjMzLTAuMTQtMC42Mi0wLjMzLTAuODYtMC41OUM4LjU1LDU3LjUsOC4zNiw1Ny4yMSw4LjIxLDU2Ljg1eiIvPiYjeGE7CQk8L2c+JiN4YTsJCTxnIGlkPSJzaGFwZTM1MjQtNiIgdHJhbnNmb3JtPSJ0cmFuc2xhdGUoOS44MjgpIj4mI3hhOwkJCTx0aXRsZSBpZD0idGl0bGU5Njc0NiI+U2hlZXQuMzUyNDwvdGl0bGU+JiN4YTsJCQk8cGF0aCBpZD0icGF0aDk2NzQ4IiBpbmtzY2FwZTpjb25uZWN0b3ItY3VydmF0dXJlPSIwIiBzdHlsZT0iZmlsbDojM0Y1NzY1OyIgZD0iTTIxLjI3LDY2LjIzYzAtMS40NS0xLjEzLTIuNjUtMi41Ni0yLjc0ICAgICBjMC4wOC0wLjQzLDAuMTItMC44NiwwLjEyLTEuMjljMC0zLjctMy4wMS02LjcxLTYuNzEtNi43MWMtMi43NiwwLTUuMjIsMS42OS02LjIzLDQuMjRjLTAuMzktMC4xLTAuNzktMC4xNi0xLjE5LTAuMTYgICAgIGMtMi41OSwwLTQuNywyLjExLTQuNyw0LjcxYzAsMi41NSwyLjA0LDQuNjQsNC42Myw0LjdoMTQuMDloMC41MmgtMC4wMkMyMC40LDY4LjY3LDIxLjI3LDY3LjQ5LDIxLjI3LDY2LjIzeiBNMTguNjgsNjguMjIgICAgIEw0LjcsNjguMjNjLTIuMTgsMC0zLjk1LTEuNzctMy45NS0zLjk1czEuNzctMy45NiwzLjk1LTMuOTZjMC40NCwwLDAuODcsMC4wOCwxLjMsMC4yMmwwLjM1LDAuMTNsMC4xMi0wLjM2ICAgICBjMC44Mi0yLjQzLDMuMDktNC4wNyw1LjY1LTQuMDdjMy4yOSwwLDUuOTYsMi42OCw1Ljk2LDUuOTZjMCwwLjUzLTAuMDcsMS4wNi0wLjIxLDEuNThsLTAuMTUsMC41NGwwLjU2LTAuMDcgICAgIGMwLjA4LTAuMDEsMC4xNi0wLjAyLDAuMjQtMC4wMmMxLjExLDAsMiwwLjksMiwyQzIwLjUyLDY3LjI3LDE5LjcxLDY4LjE0LDE4LjY4LDY4LjIyeiIvPiYjeGE7CQk8L2c+JiN4YTsJPC9nPiYjeGE7PC9nPiYjeGE7PC9zdmc+;" parent="1" vertex="1">
          <mxGeometry x="330" y="419.5" width="42" height="45" as="geometry" />
        </mxCell>
        <mxCell id="BkMy49ze9qn0hu9Yu05o-5" value="elastic" style="shape=image;verticalLabelPosition=bottom;labelBackgroundColor=#ffffff;verticalAlign=top;aspect=fixed;imageAspect=0;image=data:image/svg+xml,PHN2ZyB4bWxuczpjYz0iaHR0cDovL2NyZWF0aXZlY29tbW9ucy5vcmcvbnMjIiB4bWxuczpkYz0iaHR0cDovL3B1cmwub3JnL2RjL2VsZW1lbnRzLzEuMS8iIHhtbG5zOmlua3NjYXBlPSJodHRwOi8vd3d3Lmlua3NjYXBlLm9yZy9uYW1lc3BhY2VzL2lua3NjYXBlIiB4bWxuczpyZGY9Imh0dHA6Ly93d3cudzMub3JnLzE5OTkvMDIvMjItcmRmLXN5bnRheC1ucyMiIHhtbG5zOnNvZGlwb2RpPSJodHRwOi8vc29kaXBvZGkuc291cmNlZm9yZ2UubmV0L0RURC9zb2RpcG9kaS0wLmR0ZCIgeG1sbnM6c3ZnPSJodHRwOi8vd3d3LnczLm9yZy8yMDAwL3N2ZyIgeG1sbnM9Imh0dHA6Ly93d3cudzMub3JnLzIwMDAvc3ZnIiB4bWxuczp4bGluaz0iaHR0cDovL3d3dy53My5vcmcvMTk5OS94bGluayIgdmVyc2lvbj0iMS4xIiBpZD0ic3ZnMTAwMzAzIiBpbmtzY2FwZTp2ZXJzaW9uPSIwLjkyLjMgKDI0MDU1NDYsIDIwMTgtMDMtMTEpIiBzb2RpcG9kaTpkb2NuYW1lPSJnZW5lcmljX2RhdGFiYXNlX2JsdWUuc3ZnIiB4PSIwcHgiIHk9IjBweCIgdmlld0JveD0iMCAwIDM2Ljc5IDQ3LjY5IiBzdHlsZT0iZW5hYmxlLWJhY2tncm91bmQ6bmV3IDAgMCAzNi43OSA0Ny42OTsiIHhtbDpzcGFjZT0icHJlc2VydmUiPiYjeGE7PHNvZGlwb2RpOm5hbWVkdmlldyBib3JkZXJjb2xvcj0iIzY2NjY2NiIgYm9yZGVyb3BhY2l0eT0iMSIgZml0LW1hcmdpbi1ib3R0b209IjAiIGZpdC1tYXJnaW4tbGVmdD0iMCIgZml0LW1hcmdpbi1yaWdodD0iMCIgZml0LW1hcmdpbi10b3A9IjAiIGdyaWR0b2xlcmFuY2U9IjEwIiBndWlkZXRvbGVyYW5jZT0iMTAiIGlkPSJuYW1lZHZpZXcxMDAzMDUiIGlua3NjYXBlOmN1cnJlbnQtbGF5ZXI9InN2ZzEwMDMwMyIgaW5rc2NhcGU6Y3g9IjI0LjUzMDAwMSIgaW5rc2NhcGU6Y3k9IjMxLjc5MTY2OSIgaW5rc2NhcGU6cGFnZW9wYWNpdHk9IjAiIGlua3NjYXBlOnBhZ2VzaGFkb3c9IjIiIGlua3NjYXBlOndpbmRvdy1oZWlnaHQ9IjEwMTciIGlua3NjYXBlOndpbmRvdy1tYXhpbWl6ZWQ9IjEiIGlua3NjYXBlOndpbmRvdy13aWR0aD0iMTkyMCIgaW5rc2NhcGU6d2luZG93LXg9Ii04IiBpbmtzY2FwZTp3aW5kb3cteT0iLTgiIGlua3NjYXBlOnpvb209IjEzLjIxODQ4MSIgb2JqZWN0dG9sZXJhbmNlPSIxMCIgcGFnZWNvbG9yPSIjZmZmZmZmIiBzaG93Z3JpZD0iZmFsc2UiPiYjeGE7CTwvc29kaXBvZGk6bmFtZWR2aWV3PiYjeGE7PGcgaWQ9ImcxMDAzMDEiIHRyYW5zZm9ybT0idHJhbnNsYXRlKC0wLjc1LC0wLjc0NSkiPiYjeGE7CTx0aXRsZSBpZD0idGl0bGUxMDAyNjkiPlBhZ2UtMTwvdGl0bGU+JiN4YTsJPGcgaWQ9Imdyb3VwMzQ5My0xIiB0cmFuc2Zvcm09InRyYW5zbGF0ZSgxLjUsLTEuNSkiPiYjeGE7CQk8dGl0bGUgaWQ9InRpdGxlMTAwMjcxIj5HZW5lcmljIERhdGFiYXNlIChCbHVlKTwvdGl0bGU+JiN4YTsJCTxnIGlkPSJncm91cDM0OTQtMiI+JiN4YTsJCQk8dGl0bGUgaWQ9InRpdGxlMTAwMjczIj5nMTQ1MDwvdGl0bGU+JiN4YTsJCQk8ZyBpZD0ic2hhcGUzNDk1LTMiPiYjeGE7CQkJCTx0aXRsZSBpZD0idGl0bGUxMDAyNzUiPnBhdGgxNDQyPC90aXRsZT4mI3hhOwkJCQk8cGF0aCBpZD0icGF0aDEwMDI3NyIgaW5rc2NhcGU6Y29ubmVjdG9yLWN1cnZhdHVyZT0iMCIgc3R5bGU9ImZpbGw6I0ZGRkZGRjsiIGQ9Ik0zMS43OSw5TDIxLjQ0LDkuMDlMMCw5LjI3djMzLjM3ICAgICAgYzAsMy40Miw3LjUsNi4zNywxNy4yNSw2LjU1aDAuMzdjMS4zMiwwLDIuNi0wLjA3LDMuODItMC4xOWMzLjU3LTAuMjIsNy4wOC0xLjA3LDEwLjM1LTIuNTNjMi4xOS0xLjEsMy40Ni0yLjQ0LDMuNDYtMy44M1Y4Ljk3ICAgICAgTDMxLjc5LDl6Ii8+JiN4YTsJCQk8L2c+JiN4YTsJCQk8ZyBpZD0ic2hhcGUzNDk2LTUiIHRyYW5zZm9ybT0idHJhbnNsYXRlKDIxLjQ0MjUsLTAuMjEpIj4mI3hhOwkJCQk8dGl0bGUgaWQ9InRpdGxlMTAwMjgwIj5wYXRoMTQ0NDwvdGl0bGU+JiN4YTsJCQkJPHBhdGggaWQ9InBhdGgxMDAyODIiIGlua3NjYXBlOmNvbm5lY3Rvci1jdXJ2YXR1cmU9IjAiIHN0eWxlPSJmaWxsOiNFNUU1RTU7IiBkPSJNMTAuMzUsOS4yMXYzNy40NSAgICAgIEM3LjA4LDQ4LjEyLDMuNTcsNDguOTcsMCw0OS4xOVY5LjNMMTAuMzUsOS4yMXoiLz4mI3hhOwkJCTwvZz4mI3hhOwkJCTxnIGlkPSJzaGFwZTM0OTctNyI+JiN4YTsJCQkJPHRpdGxlIGlkPSJ0aXRsZTEwMDI4NSI+cGF0aDE0NDY8L3RpdGxlPiYjeGE7CQkJCTxwYXRoIGlkPSJwYXRoMTAwMjg3IiBpbmtzY2FwZTpjb25uZWN0b3ItY3VydmF0dXJlPSIwIiBzdHlsZT0iZmlsbDpub25lOyIgZD0iTTAsOS4yN3YzMy4zN2MwLDMuNDIsNy40Niw2LjM3LDE3LjI1LDYuNTVoMC4zNyAgICAgIGM5Ljk3LTAuMTMsMTcuNjMtMy4xLDE3LjYzLTYuNTVWOC45N0wwLDkuMjd6Ii8+JiN4YTsJCQkJJiN4YTsJCQkJCTxwYXRoIGlkPSJwYXRoMTAwMjg5IiBpbmtzY2FwZTpjb25uZWN0b3ItY3VydmF0dXJlPSIwIiBzdHlsZT0iZmlsbDpub25lO3N0cm9rZTojNTU2QThBO3N0cm9rZS13aWR0aDoxLjU7c3Ryb2tlLW1pdGVybGltaXQ6MzsiIGQ9IiAgICAgIE0wLDkuMjd2MzMuMzdjMCwzLjQyLDcuNDYsNi4zNywxNy4yNSw2LjU1aDAuMzdjOS45Ny0wLjEzLDE3LjYzLTMuMSwxNy42My02LjU1VjguOTciLz4mI3hhOwkJCTwvZz4mI3hhOwkJCTxnIGlkPSJzaGFwZTM0OTgtMTAiIHRyYW5zZm9ybT0idHJhbnNsYXRlKDAuMDQ1LC0zMy40NjUpIj4mI3hhOwkJCQk8dGl0bGUgaWQ9InRpdGxlMTAwMjkyIj5wYXRoMTQ0ODwvdGl0bGU+JiN4YTsJCQkJPHBhdGggaWQ9InBhdGgxMDAyOTQiIGlua3NjYXBlOmNvbm5lY3Rvci1jdXJ2YXR1cmU9IjAiIHN0eWxlPSJmaWxsOiM1NUQyRjY7IiBkPSJNMzUuMjUsNDIuODJjMCwzLjUyLTcuODksNi4zNy0xNy42Myw2LjM3ICAgICAgQzcuODksNDkuMTksMCw0Ni4zNCwwLDQyLjgyYzAtMy41MSw4LjEyLTYuMzYsMTcuODYtNi4zNkMyNy41OSwzNi40NiwzNS4yNSwzOS4zMSwzNS4yNSw0Mi44MkwzNS4yNSw0Mi44MnoiLz4mI3hhOwkJCQkmI3hhOwkJCQkJPHBhdGggaWQ9InBhdGgxMDAyOTYiIGlua3NjYXBlOmNvbm5lY3Rvci1jdXJ2YXR1cmU9IjAiIHN0eWxlPSJmaWxsOm5vbmU7c3Ryb2tlOiM1NTZBOEE7c3Ryb2tlLXdpZHRoOjEuNTtzdHJva2UtbWl0ZXJsaW1pdDozOyIgZD0iICAgICAgTTM1LjI1LDQyLjgyYzAsMy41Mi03Ljg5LDYuMzctMTcuNjMsNi4zN0M3Ljg5LDQ5LjE5LDAsNDYuMzQsMCw0Mi44MmMwLTMuNTEsOC4xMi02LjM2LDE3Ljg2LTYuMzYgICAgICBDMjcuNTksMzYuNDYsMzUuMjUsMzkuMzEsMzUuMjUsNDIuODIiLz4mI3hhOwkJCTwvZz4mI3hhOwkJPC9nPiYjeGE7CTwvZz4mI3hhOzwvZz4mI3hhOzwvc3ZnPg==;" parent="1" vertex="1">
          <mxGeometry x="459.5" y="419.5" width="36" height="46" as="geometry" />
        </mxCell>
        <mxCell id="BkMy49ze9qn0hu9Yu05o-6" value="File" style="shape=image;verticalLabelPosition=bottom;labelBackgroundColor=#ffffff;verticalAlign=top;aspect=fixed;imageAspect=0;image=data:image/svg+xml,PHN2ZyB4bWxuczpjYz0iaHR0cDovL2NyZWF0aXZlY29tbW9ucy5vcmcvbnMjIiB4bWxuczpkYz0iaHR0cDovL3B1cmwub3JnL2RjL2VsZW1lbnRzLzEuMS8iIHhtbG5zOmlua3NjYXBlPSJodHRwOi8vd3d3Lmlua3NjYXBlLm9yZy9uYW1lc3BhY2VzL2lua3NjYXBlIiB4bWxuczpyZGY9Imh0dHA6Ly93d3cudzMub3JnLzE5OTkvMDIvMjItcmRmLXN5bnRheC1ucyMiIHhtbG5zOnNvZGlwb2RpPSJodHRwOi8vc29kaXBvZGkuc291cmNlZm9yZ2UubmV0L0RURC9zb2RpcG9kaS0wLmR0ZCIgeG1sbnM6c3ZnPSJodHRwOi8vd3d3LnczLm9yZy8yMDAwL3N2ZyIgeG1sbnM9Imh0dHA6Ly93d3cudzMub3JnLzIwMDAvc3ZnIiB4bWxuczp4bGluaz0iaHR0cDovL3d3dy53My5vcmcvMTk5OS94bGluayIgdmVyc2lvbj0iMS4xIiBpZD0ic3ZnNDIyMDIiIGlua3NjYXBlOnZlcnNpb249IjAuOTIuMyAoMjQwNTU0NiwgMjAxOC0wMy0xMSkiIHNvZGlwb2RpOmRvY25hbWU9ImVtcHR5X2ZpbGVzLnN2ZyIgeD0iMHB4IiB5PSIwcHgiIHZpZXdCb3g9IjAgMCAzNC41MSA0NC40MSIgc3R5bGU9ImVuYWJsZS1iYWNrZ3JvdW5kOm5ldyAwIDAgMzQuNTEgNDQuNDE7IiB4bWw6c3BhY2U9InByZXNlcnZlIj4mI3hhOzxzb2RpcG9kaTpuYW1lZHZpZXcgYm9yZGVyY29sb3I9IiM2NjY2NjYiIGJvcmRlcm9wYWNpdHk9IjEiIGZpdC1tYXJnaW4tYm90dG9tPSIwIiBmaXQtbWFyZ2luLWxlZnQ9IjAiIGZpdC1tYXJnaW4tcmlnaHQ9IjAiIGZpdC1tYXJnaW4tdG9wPSIwIiBncmlkdG9sZXJhbmNlPSIxMCIgZ3VpZGV0b2xlcmFuY2U9IjEwIiBpZD0ibmFtZWR2aWV3NDIyMDQiIGlua3NjYXBlOmN1cnJlbnQtbGF5ZXI9InN2ZzQyMjAyIiBpbmtzY2FwZTpjeD0iMjMuMDAzMTUyIiBpbmtzY2FwZTpjeT0iMjkuNjAzMzk1IiBpbmtzY2FwZTpwYWdlb3BhY2l0eT0iMCIgaW5rc2NhcGU6cGFnZXNoYWRvdz0iMiIgaW5rc2NhcGU6d2luZG93LWhlaWdodD0iMTAxNyIgaW5rc2NhcGU6d2luZG93LW1heGltaXplZD0iMSIgaW5rc2NhcGU6d2luZG93LXdpZHRoPSIxOTIwIiBpbmtzY2FwZTp3aW5kb3cteD0iLTgiIGlua3NjYXBlOndpbmRvdy15PSItOCIgaW5rc2NhcGU6em9vbT0iMTQuMTY2MDg5IiBvYmplY3R0b2xlcmFuY2U9IjEwIiBwYWdlY29sb3I9IiNmZmZmZmYiIHNob3dncmlkPSJmYWxzZSI+JiN4YTsJPC9zb2RpcG9kaTpuYW1lZHZpZXc+JiN4YTs8ZyBpZD0iZzQyMjAwIiB0cmFuc2Zvcm09InRyYW5zbGF0ZSgtMC43NDc2NzI5NSwtMC43NDYwODc2OSkiPiYjeGE7CTx0aXRsZSBpZD0idGl0bGU0MjE1MCI+UGFnZS0xPC90aXRsZT4mI3hhOwk8ZyBpZD0iZ3JvdXA0NTk5LTEiIHRyYW5zZm9ybT0idHJhbnNsYXRlKDEuNTAwMDIsLTEuMjc4NCkiPiYjeGE7CQk8dGl0bGUgaWQ9InRpdGxlNDIxNTIiPkVtcHR5IEZpbGVzPC90aXRsZT4mI3hhOwkJPGcgaWQ9Imdyb3VwNDYwMC0yIiB0cmFuc2Zvcm09InRyYW5zbGF0ZSg0LjI0MzQ2LC00LjIxMDQ2KSI+JiN4YTsJCQk8dGl0bGUgaWQ9InRpdGxlNDIxNTQiPmczMTMyPC90aXRsZT4mI3hhOwkJCTxnIGlkPSJzaGFwZTQ2MDEtMyI+JiN4YTsJCQkJPHRpdGxlIGlkPSJ0aXRsZTQyMTU2Ij5wYXRoMzEyNjwvdGl0bGU+JiN4YTsJCQkJPHBhdGggaWQ9InBhdGg0MjE1OCIgaW5rc2NhcGU6Y29ubmVjdG9yLWN1cnZhdHVyZT0iMCIgc3R5bGU9ImZpbGw6I0ZGRkZGRjsiIGQ9Ik0xNi4xOCw3LjI0SDAuNjJDMC4yOSw3LjIzLDAuMDEsNy40OCwwLDcuODEgICAgICBjMCwwLjAxLDAsMC4wMiwwLDAuMDNMMCw0NS4zYzAsMC4zMywwLjI2LDAuNiwwLjU5LDAuNmMwLDAsMCwwLDAsMGwyNy41NiwwYzAuMzMsMCwwLjYtMC4yNywwLjYtMC42YzAsMCwwLDAsMCwwbDAtMjUuOTggICAgICBMMTYuMTgsNy4yNHoiLz4mI3hhOwkJCTwvZz4mI3hhOwkJCTxnIGlkPSJzaGFwZTQ2MDItNSIgdHJhbnNmb3JtPSJ0cmFuc2xhdGUoMCwtMC4yNTQ2MDgpIj4mI3hhOwkJCQk8dGl0bGUgaWQ9InRpdGxlNDIxNjEiPnBhdGgzMTI4PC90aXRsZT4mI3hhOwkJCQkmI3hhOwkJCQkJPHBhdGggaWQ9InBhdGg0MjE2MyIgaW5rc2NhcGU6Y29ubmVjdG9yLWN1cnZhdHVyZT0iMCIgc3R5bGU9ImZpbGw6bm9uZTtzdHJva2U6IzU1NkE4QTtzdHJva2Utd2lkdGg6MS41O3N0cm9rZS1taXRlcmxpbWl0OjM7IiBkPSIgICAgICBNMTYuMTgsNy4yNEgwLjYyQzAuMjksNy4yMywwLjAxLDcuNDgsMCw3LjgxYzAsMC4wMSwwLDAuMDIsMCwwLjAzTDAsNDUuM2MwLDAuMzMsMC4yNiwwLjYsMC41OSwwLjZjMCwwLDAsMCwwLDBsMjcuNTYsMCAgICAgIGMwLjMzLDAsMC42LTAuMjcsMC42LTAuNmMwLDAsMCwwLDAsMGwwLTI1Ljk4TDE2LjE4LDcuMjR6Ii8+JiN4YTsJCQk8L2c+JiN4YTsJCQk8ZyBpZD0ic2hhcGU0NjAzLTciIHRyYW5zZm9ybT0idHJhbnNsYXRlKDE2LjAzMDksLTI2LjY1MzcpIj4mI3hhOwkJCQk8dGl0bGUgaWQ9InRpdGxlNDIxNjYiPnBvbHlsaW5lMzEzMDwvdGl0bGU+JiN4YTsJCQkJPHBhdGggaWQ9InBhdGg0MjE2OCIgaW5rc2NhcGU6Y29ubmVjdG9yLWN1cnZhdHVyZT0iMCIgc3R5bGU9ImZpbGw6bm9uZTsiIGQ9Ik0wLDMzLjgyVjQ1LjloMTIuMzZMMCwzMy44MnoiLz4mI3hhOwkJCQkmI3hhOwkJCQkJPHBhdGggaWQ9InBhdGg0MjE3MCIgaW5rc2NhcGU6Y29ubmVjdG9yLWN1cnZhdHVyZT0iMCIgc3R5bGU9ImZpbGw6bm9uZTtzdHJva2U6IzU1NkE4QTtzdHJva2Utd2lkdGg6MS41O3N0cm9rZS1taXRlcmxpbWl0OjM7IiBkPSIgICAgICBNMCwzMy44MlY0NS45aDEyLjM2Ii8+JiN4YTsJCQk8L2c+JiN4YTsJCTwvZz4mI3hhOwkJPGcgaWQ9Imdyb3VwNDYwNC0xMCI+JiN4YTsJCQk8dGl0bGUgaWQ9InRpdGxlNDIxNzQiPmczMTQyPC90aXRsZT4mI3hhOwkJCTxnIGlkPSJzaGFwZTQ2MDUtMTEiPiYjeGE7CQkJCTx0aXRsZSBpZD0idGl0bGU0MjE3NiI+cGF0aDMxMzQ8L3RpdGxlPiYjeGE7CQkJCTxwYXRoIGlkPSJwYXRoNDIxNzgiIGlua3NjYXBlOmNvbm5lY3Rvci1jdXJ2YXR1cmU9IjAiIHN0eWxlPSJmaWxsOiNGRkZGRkY7IiBkPSJNMTYuMTgsNy4yNEgwLjYyQzAuMjksNy4yMywwLjAxLDcuNDgsMCw3LjgxICAgICAgYzAsMC4wMSwwLDAuMDIsMCwwLjAzTDAsNDUuM2MwLDAuMzMsMC4yNiwwLjYsMC41OSwwLjZjMCwwLDAsMCwwLDBsMjcuNTYsMGMwLjMzLDAsMC42LTAuMjcsMC42LTAuNmMwLDAsMCwwLDAsMGwwLTI1Ljk4ICAgICAgTDE2LjE4LDcuMjR6Ii8+JiN4YTsJCQk8L2c+JiN4YTsJCQk8ZyBpZD0ic2hhcGU0NjA2LTEzIiB0cmFuc2Zvcm09InRyYW5zbGF0ZSgxNi4wMzA5LC0yNi4zNjYxKSI+JiN4YTsJCQkJPHRpdGxlIGlkPSJ0aXRsZTQyMTgxIj5wb2x5Z29uMzEzNjwvdGl0bGU+JiN4YTsJCQkJPHBhdGggaWQ9InBhdGg0MjE4MyIgaW5rc2NhcGU6Y29ubmVjdG9yLWN1cnZhdHVyZT0iMCIgc3R5bGU9ImZpbGw6IzgwREVGOTsiIGQ9Ik0wLDMzLjY0TDEyLjczLDQ1LjlIMC4wMkwwLDMzLjY0eiIvPiYjeGE7CQkJPC9nPiYjeGE7CQkJPGcgaWQ9InNoYXBlNDYwNy0xNSIgdHJhbnNmb3JtPSJ0cmFuc2xhdGUoMCwtMC4yMjE2MDMpIj4mI3hhOwkJCQk8dGl0bGUgaWQ9InRpdGxlNDIxODYiPnBhdGgzMTM4PC90aXRsZT4mI3hhOwkJCQkmI3hhOwkJCQkJPHBhdGggaWQ9InBhdGg0MjE4OCIgaW5rc2NhcGU6Y29ubmVjdG9yLWN1cnZhdHVyZT0iMCIgc3R5bGU9ImZpbGw6bm9uZTtzdHJva2U6IzU1NkE4QTtzdHJva2Utd2lkdGg6MS41O3N0cm9rZS1taXRlcmxpbWl0OjM7IiBkPSIgICAgICBNMTYuMTgsNy4yNEgwLjYyQzAuMjksNy4yMywwLjAxLDcuNDgsMCw3LjgxYzAsMC4wMSwwLDAuMDIsMCwwLjAzTDAsNDUuM2MwLDAuMzMsMC4yNiwwLjYsMC41OSwwLjZjMCwwLDAsMCwwLDBsMjcuNTYsMCAgICAgIGMwLjMzLDAsMC42LTAuMjcsMC42LTAuNmMwLDAsMCwwLDAsMGwwLTI1Ljk4TDE2LjE4LDcuMjR6Ii8+JiN4YTsJCQk8L2c+JiN4YTsJCQk8ZyBpZD0ic2hhcGU0NjA4LTE3IiB0cmFuc2Zvcm09InRyYW5zbGF0ZSgxNi4wMzA5LC0yNi42MjA3KSI+JiN4YTsJCQkJPHRpdGxlIGlkPSJ0aXRsZTQyMTkxIj5wb2x5bGluZTMxNDA8L3RpdGxlPiYjeGE7CQkJCTxwYXRoIGlkPSJwYXRoNDIxOTMiIGlua3NjYXBlOmNvbm5lY3Rvci1jdXJ2YXR1cmU9IjAiIHN0eWxlPSJmaWxsOm5vbmU7IiBkPSJNMCwzMy42OFY0NS45aDEyLjM4TDAsMzMuNjh6Ii8+JiN4YTsJCQkJJiN4YTsJCQkJCTxwYXRoIGlkPSJwYXRoNDIxOTUiIGlua3NjYXBlOmNvbm5lY3Rvci1jdXJ2YXR1cmU9IjAiIHN0eWxlPSJmaWxsOm5vbmU7c3Ryb2tlOiM1NTZBOEE7c3Ryb2tlLXdpZHRoOjEuNTtzdHJva2UtbWl0ZXJsaW1pdDozOyIgZD0iICAgICAgTTAsMzMuNjhWNDUuOWgxMi4zOCIvPiYjeGE7CQkJPC9nPiYjeGE7CQk8L2c+JiN4YTsJPC9nPiYjeGE7PC9nPiYjeGE7PC9zdmc+;" parent="1" vertex="1">
          <mxGeometry x="573" y="419.5" width="40" height="50" as="geometry" />
        </mxCell>
        <mxCell id="BkMy49ze9qn0hu9Yu05o-7" value="" style="rounded=1;whiteSpace=wrap;html=1;" parent="1" vertex="1">
          <mxGeometry x="170" y="300" width="480" height="100" as="geometry" />
        </mxCell>
        <mxCell id="BkMy49ze9qn0hu9Yu05o-8" value="core module" style="text;html=1;strokeColor=none;fillColor=none;align=center;verticalAlign=middle;whiteSpace=wrap;rounded=0;" parent="1" vertex="1">
          <mxGeometry x="100" y="340" width="40" height="20" as="geometry" />
        </mxCell>
        <mxCell id="BkMy49ze9qn0hu9Yu05o-9" value="face&#xa;capture" style="shape=image;verticalLabelPosition=bottom;labelBackgroundColor=#ffffff;verticalAlign=top;aspect=fixed;imageAspect=0;image=data:image/svg+xml,PHN2ZyB4bWxuczpjYz0iaHR0cDovL2NyZWF0aXZlY29tbW9ucy5vcmcvbnMjIiB4bWxuczpkYz0iaHR0cDovL3B1cmwub3JnL2RjL2VsZW1lbnRzLzEuMS8iIHhtbG5zOmlua3NjYXBlPSJodHRwOi8vd3d3Lmlua3NjYXBlLm9yZy9uYW1lc3BhY2VzL2lua3NjYXBlIiB4bWxuczpyZGY9Imh0dHA6Ly93d3cudzMub3JnLzE5OTkvMDIvMjItcmRmLXN5bnRheC1ucyMiIHhtbG5zOnNvZGlwb2RpPSJodHRwOi8vc29kaXBvZGkuc291cmNlZm9yZ2UubmV0L0RURC9zb2RpcG9kaS0wLmR0ZCIgeG1sbnM6c3ZnPSJodHRwOi8vd3d3LnczLm9yZy8yMDAwL3N2ZyIgeG1sbnM9Imh0dHA6Ly93d3cudzMub3JnLzIwMDAvc3ZnIiB4bWxuczp4bGluaz0iaHR0cDovL3d3dy53My5vcmcvMTk5OS94bGluayIgdmVyc2lvbj0iMS4xIiBpZD0ic3ZnMTg2MjQwIiBpbmtzY2FwZTp2ZXJzaW9uPSIwLjkyLjMgKDI0MDU1NDYsIDIwMTgtMDMtMTEpIiBzb2RpcG9kaTpkb2NuYW1lPSJudWdldC5zdmciIHg9IjBweCIgeT0iMHB4IiB2aWV3Qm94PSIwIDAgNDggNDcuMjUiIHN0eWxlPSJlbmFibGUtYmFja2dyb3VuZDpuZXcgMCAwIDQ4IDQ3LjI1OyIgeG1sOnNwYWNlPSJwcmVzZXJ2ZSI+JiN4YTs8c29kaXBvZGk6bmFtZWR2aWV3IGJvcmRlcmNvbG9yPSIjNjY2NjY2IiBib3JkZXJvcGFjaXR5PSIxIiBmaXQtbWFyZ2luLWJvdHRvbT0iMCIgZml0LW1hcmdpbi1sZWZ0PSIwIiBmaXQtbWFyZ2luLXJpZ2h0PSIwIiBmaXQtbWFyZ2luLXRvcD0iMCIgZ3JpZHRvbGVyYW5jZT0iMTAiIGd1aWRldG9sZXJhbmNlPSIxMCIgaWQ9Im5hbWVkdmlldzE4NjI0MiIgaW5rc2NhcGU6Y3VycmVudC1sYXllcj0ic3ZnMTg2MjQwIiBpbmtzY2FwZTpjeD0iMzIuMDAwMDUzIiBpbmtzY2FwZTpjeT0iMzEuNDk5OTg0IiBpbmtzY2FwZTpwYWdlb3BhY2l0eT0iMCIgaW5rc2NhcGU6cGFnZXNoYWRvdz0iMiIgaW5rc2NhcGU6d2luZG93LWhlaWdodD0iMTAxNyIgaW5rc2NhcGU6d2luZG93LW1heGltaXplZD0iMSIgaW5rc2NhcGU6d2luZG93LXdpZHRoPSIxOTIwIiBpbmtzY2FwZTp3aW5kb3cteD0iLTgiIGlua3NjYXBlOndpbmRvdy15PSItOCIgaW5rc2NhcGU6em9vbT0iMTMuMzM4NDY4IiBvYmplY3R0b2xlcmFuY2U9IjEwIiBwYWdlY29sb3I9IiNmZmZmZmYiIHNob3dncmlkPSJmYWxzZSI+JiN4YTsJPC9zb2RpcG9kaTpuYW1lZHZpZXc+JiN4YTs8ZyBpZD0iZzE4NjIzOCIgdHJhbnNmb3JtPSJ0cmFuc2xhdGUoLTAuNzQ5OTk2OTcsLTAuNzUxNzk2OTcpIj4mI3hhOwk8dGl0bGUgaWQ9InRpdGxlMTg2MjA3Ij5QYWdlLTE8L3RpdGxlPiYjeGE7CTxnIGlkPSJncm91cDg1MS0xIiB0cmFuc2Zvcm09InRyYW5zbGF0ZSgwLjc1LC0wLjc1KSI+JiN4YTsJCTx0aXRsZSBpZD0idGl0bGUxODYyMDkiPk51Z2V0PC90aXRsZT4mI3hhOwkJPGcgaWQ9Imdyb3VwODUyLTIiPiYjeGE7CQkJPHRpdGxlIGlkPSJ0aXRsZTE4NjIxMSI+ZzQzMTA8L3RpdGxlPiYjeGE7CQkJPGcgaWQ9InNoYXBlODUzLTMiIHRyYW5zZm9ybT0idHJhbnNsYXRlKDkuNzUpIj4mI3hhOwkJCQk8dGl0bGUgaWQ9InRpdGxlMTg2MjEzIj5wYXRoNDI4OTwvdGl0bGU+JiN4YTsJCQkJPHBhdGggaWQ9InBhdGgxODYyMTUiIGlua3NjYXBlOmNvbm5lY3Rvci1jdXJ2YXR1cmU9IjAiIHN0eWxlPSJmaWxsOiMwMDQ4ODA7IiBkPSJNMjYuODksNDguNzVIMTEuMzUgICAgICBDNS4wNSw0OC43MS0wLjAzLDQzLjU3LDAsMzcuMjd2LTE1LjNjLTAuMDItNi4zLDUuMDUtMTEuNDMsMTEuMzUtMTEuNDdoMTUuNTRjNi4zLDAuMDQsMTEuMzgsNS4xNywxMS4zNiwxMS40N3YxNS4zICAgICAgQzM4LjI4LDQzLjU3LDMzLjE5LDQ4LjcxLDI2Ljg5LDQ4Ljc1eiIvPiYjeGE7CQkJPC9nPiYjeGE7CQkJPGcgaWQ9Imdyb3VwODU0LTUiIHRyYW5zZm9ybT0idHJhbnNsYXRlKDE0LjM5MjUsLTYuNDgyOTYpIj4mI3hhOwkJCQk8dGl0bGUgaWQ9InRpdGxlMTg2MjE4Ij5nNDI5NTwvdGl0bGU+JiN4YTsJCQkJPGcgaWQ9InNoYXBlODU1LTYiIHRyYW5zZm9ybT0idHJhbnNsYXRlKDE1LjI5NjgpIj4mI3hhOwkJCQkJPHRpdGxlIGlkPSJ0aXRsZTE4NjIyMCI+cGF0aDQyOTE8L3RpdGxlPiYjeGE7CQkJCQk8cGF0aCBpZD0icGF0aDE4NjIyMiIgaW5rc2NhcGU6Y29ubmVjdG9yLWN1cnZhdHVyZT0iMCIgc3R5bGU9ImZpbGw6I0ZGRkZGRjsiIGQ9Ik0xMy43NCw0My4xMWMtMC4wMiw0LjQ0LTMuNjMsOC4wMy04LjA3LDguMDEgICAgICAgcy04LjAzLTMuNjMtOC4wMS04LjA3YzAuMDItNC40MywzLjYxLTguMDEsOC4wNC04LjAxQzEwLjE0LDM1LjA2LDEzLjc0LDM4LjY3LDEzLjc0LDQzLjExeiIvPiYjeGE7CQkJCTwvZz4mI3hhOwkJCQk8ZyBpZD0ic2hhcGU4NTYtOCIgdHJhbnNmb3JtPSJ0cmFuc2xhdGUoMCwtMTcuNDEyNikiPiYjeGE7CQkJCQk8dGl0bGUgaWQ9InRpdGxlMTg2MjI1Ij5wYXRoNDI5MzwvdGl0bGU+JiN4YTsJCQkJCTxwYXRoIGlkPSJwYXRoMTg2MjI3IiBpbmtzY2FwZTpjb25uZWN0b3ItY3VydmF0dXJlPSIwIiBzdHlsZT0iZmlsbDojRkZGRkZGOyIgZD0iTTUuMDcsNDAuMTNjMi43OCwwLjAyLDUuMDMsMi4yOSw1LjAxLDUuMDcgICAgICAgYy0wLjAyLDIuNzgtMi4yOSw1LjAzLTUuMDcsNS4wMUMyLjI0LDUwLjE5LDAsNDcuOTQsMCw0NS4xN2MwLTIuNzksMi4yNy01LjA0LDUuMDUtNS4wNEM1LjA2LDQwLjEzLDUuMDYsNDAuMTMsNS4wNyw0MC4xM3oiLz4mI3hhOwkJCQk8L2c+JiN4YTsJCQk8L2c+JiN4YTsJCQk8ZyBpZD0ic2hhcGU4NTctMTAiIHRyYW5zZm9ybT0idHJhbnNsYXRlKDAsLTQwLjIwODIpIj4mI3hhOwkJCQk8dGl0bGUgaWQ9InRpdGxlMTg2MjMxIj5wYXRoNDI5NzwvdGl0bGU+JiN4YTsJCQkJPHBhdGggaWQ9InBhdGgxODYyMzMiIGlua3NjYXBlOmNvbm5lY3Rvci1jdXJ2YXR1cmU9IjAiIHN0eWxlPSJmaWxsOiMwMDQ4ODA7IiBkPSJNMCw0NS44M2MwLDIuMjgsMS44NCw0LjEzLDQuMTIsNC4xMyAgICAgIHM0LjEzLTEuODQsNC4xMy00LjEyYzAtMi4yOC0xLjg0LTQuMTMtNC4xMi00LjEzYzAsMC0wLjAxLDAtMC4wMSwwQzEuODUsNDEuNzEsMCw0My41NiwwLDQ1LjgzeiIvPiYjeGE7CQkJPC9nPiYjeGE7CQk8L2c+JiN4YTsJPC9nPiYjeGE7PC9nPiYjeGE7PC9zdmc+;" parent="1" vertex="1">
          <mxGeometry x="212" y="318.5" width="44" height="43" as="geometry" />
        </mxCell>
        <mxCell id="BkMy49ze9qn0hu9Yu05o-10" value="feature&#xa;extraction" style="shape=image;verticalLabelPosition=bottom;labelBackgroundColor=#ffffff;verticalAlign=top;aspect=fixed;imageAspect=0;image=data:image/svg+xml,PHN2ZyB4bWxuczpldj0iaHR0cDovL3d3dy53My5vcmcvMjAwMS94bWwtZXZlbnRzIiB4bWxucz0iaHR0cDovL3d3dy53My5vcmcvMjAwMC9zdmciIHhtbG5zOnhsaW5rPSJodHRwOi8vd3d3LnczLm9yZy8xOTk5L3hsaW5rIiB2ZXJzaW9uPSIxLjEiIGlkPSJMYXllcl8xIiB4PSIwcHgiIHk9IjBweCIgdmlld0JveD0iMCAwIDQ0LjI1IDQxLjA0IiBzdHlsZT0iZW5hYmxlLWJhY2tncm91bmQ6bmV3IDAgMCA0NC4yNSA0MS4wNDsiIHhtbDpzcGFjZT0icHJlc2VydmUiPiYjeGE7PGc+JiN4YTsJPHRpdGxlPlBhZ2UtMTwvdGl0bGU+JiN4YTsJPGcgaWQ9Imdyb3VwNjA3OC0xIiB0cmFuc2Zvcm09InRyYW5zbGF0ZSgxLjcwNTE2LC0wLjE3MDczMikiPiYjeGE7CQk8dGl0bGU+UGFydG5lciBOZXR3b3JrPC90aXRsZT4mI3hhOwkJPGcgaWQ9InNoYXBlNjA3OS0yIiB0cmFuc2Zvcm09InRyYW5zbGF0ZSgtMi41OTMwNywtMjYuNzQ2KSByb3RhdGUoLTE1KSI+JiN4YTsJCQk8dGl0bGU+U2hlZXQuNjA3OTwvdGl0bGU+JiN4YTsJCQkmI3hhOwkJCQk8cGF0aCBzdHlsZT0iZmlsbDpub25lO3N0cm9rZTojM0Y1NzY1O3N0cm9rZS13aWR0aDowLjgzOTY7c3Ryb2tlLWxpbmVjYXA6cm91bmQ7c3Ryb2tlLWxpbmVqb2luOnJvdW5kO3N0cm9rZS1taXRlcmxpbWl0OjM7IiBkPSIgICAgIE0xOS4yLDM5Ljc3QzcuODgsMjguNzgtMC41MiwzMi42NSwwLjAzLDQxLjA0Ii8+JiN4YTsJCTwvZz4mI3hhOwkJPGcgaWQ9InNoYXBlNjA4MC01IiB0cmFuc2Zvcm09InRyYW5zbGF0ZSgyMy4zNjE2LC0xMy41KSI+JiN4YTsJCQk8dGl0bGU+U2hlZXQuNjA4MDwvdGl0bGU+JiN4YTsJCQkmI3hhOwkJCQk8cGF0aCBzdHlsZT0iZmlsbDpub25lO3N0cm9rZTojM0Y1NzY1O3N0cm9rZS13aWR0aDowLjgzOTY7c3Ryb2tlLWxpbmVjYXA6cm91bmQ7c3Ryb2tlLWxpbmVqb2luOnJvdW5kO3N0cm9rZS1taXRlcmxpbWl0OjM7IiBkPSIgICAgIE0wLDMyLjk1YzEwLjI5LDEwLjg0LDE4LjkyLDExLjgxLDE4LjA4LTMuMjgiLz4mI3hhOwkJPC9nPiYjeGE7CQk8ZyBpZD0ic2hhcGU2MDgxLTgiIHRyYW5zZm9ybT0idHJhbnNsYXRlKDUuOTg4OTIsLTEuODUxNCkiPiYjeGE7CQkJPHRpdGxlPlNoZWV0LjYwODE8L3RpdGxlPiYjeGE7CQkJJiN4YTsJCQkJPHBhdGggc3R5bGU9ImZpbGw6bm9uZTtzdHJva2U6IzNGNTc2NTtzdHJva2Utd2lkdGg6MC44Mzk2O3N0cm9rZS1saW5lY2FwOnJvdW5kO3N0cm9rZS1saW5lam9pbjpyb3VuZDtzdHJva2UtbWl0ZXJsaW1pdDozOyIgZD0iICAgICBNMCwyM0MwLDEzLjA1LDguMSw0Ljk3LDE4LjA3LDQuOTdjOS45OCwwLDE4LjA3LDguMDgsMTguMDcsMTguMDNjMCw5Ljk2LTguMDksMTguMDQtMTguMDcsMTguMDRDOC4xLDQxLjA0LDAsMzIuOTYsMCwyMyIvPiYjeGE7CQk8L2c+JiN4YTsJCTxnIGlkPSJzaGFwZTYwODItMTEiIHRyYW5zZm9ybT0idHJhbnNsYXRlKDE4LjgxMjcsLTguMTM1NzQpIHJvdGF0ZSgzMCkiPiYjeGE7CQkJPHRpdGxlPlNoZWV0LjYwODI8L3RpdGxlPiYjeGE7CQkJJiN4YTsJCQkJPHBhdGggc3R5bGU9ImZpbGw6bm9uZTtzdHJva2U6IzNGNTc2NTtzdHJva2Utd2lkdGg6MC44Mzk2O3N0cm9rZS1saW5lY2FwOnJvdW5kO3N0cm9rZS1saW5lam9pbjpyb3VuZDtzdHJva2UtbWl0ZXJsaW1pdDozOyIgZD0iICAgICBNMi4yMiwyOS4xYy02LjcsMTIuNTIsMS43NywxNy4wMSwyNS4zOSw0Ljc0Ii8+JiN4YTsJCTwvZz4mI3hhOwkJPGcgaWQ9Imdyb3VwNjA4My0xNCIgdHJhbnNmb3JtPSJ0cmFuc2xhdGUoMjIuMjc4OSwtMjUuODYwOCkiPiYjeGE7CQkJPHRpdGxlPlBvd2VyU2hlbGwgIzI8L3RpdGxlPiYjeGE7CQkJPGcgaWQ9InNoYXBlNjA4NC0xNSI+JiN4YTsJCQkJPHRpdGxlPlNoZWV0LjYwODQ8L3RpdGxlPiYjeGE7CQkJCTxwYXRoIHN0eWxlPSJmaWxsOiMzRjU3NjU7IiBkPSJNMTAuNTQsNDEuMDRoLTkuOEMwLjMzLDQxLjA0LDAsNDAuNywwLDQwLjN2LTkuNzljMC0wLjQxLDAuMzQtMC43NCwwLjc0LTAuNzRoOS44ICAgICAgYzAuNDMsMCwwLjc0LDAuMzQsMC43NCwwLjc0djkuNzlDMTEuMjgsNDAuNzIsMTAuOTcsNDEuMDQsMTAuNTQsNDEuMDR6Ii8+JiN4YTsJCQk8L2c+JiN4YTsJCTwvZz4mI3hhOwkJPGcgaWQ9Imdyb3VwNjA4NS0xNyIgdHJhbnNmb3JtPSJ0cmFuc2xhdGUoMjYuMzEwNCwtMjcuMjE1NykiPiYjeGE7CQkJPHRpdGxlPlVzZXI8L3RpdGxlPiYjeGE7CQkJPGcgaWQ9InNoYXBlNjA4Ni0xOCIgdHJhbnNmb3JtPSJ0cmFuc2xhdGUoMC42NTc5NDMsLTYuNjM2MSkiPiYjeGE7CQkJCTx0aXRsZT5TaGVldC42MDg2PC90aXRsZT4mI3hhOwkJCQk8cGF0aCBzdHlsZT0iZmlsbDojRkZGRkZGOyIgZD0iTTAsNDAuMDhjMC0wLjUzLDAuNDMtMC45NiwwLjk2LTAuOTZzMC45NiwwLjQzLDAuOTYsMC45NnMtMC40MywwLjk2LTAuOTYsMC45NlMwLDQwLjYxLDAsNDAuMDh6ICAgICAgIi8+JiN4YTsJCQk8L2c+JiN4YTsJCQk8ZyBpZD0ic2hhcGU2MDg3LTIwIj4mI3hhOwkJCQk8dGl0bGU+U2hlZXQuNjA4NzwvdGl0bGU+JiN4YTsJCQkJPHBhdGggc3R5bGU9ImZpbGw6I0ZGRkZGRjsiIGQ9Ik0yLjYxLDM0LjU5Yy0yLDAtMiwwLTIsMEMwLjI5LDM0LjU5LDAsMzQuODcsMCwzNS4yYzAsMi43LDAsMi43LDAsMi43ICAgICAgYzAsMC4zMiwwLjI5LDAuNjEsMC42MSwwLjYxbDAsMGMwLDEuOTIsMCwxLjkyLDAsMS45MmMwLDAuMzIsMC4yNSwwLjYxLDAuNTcsMC42MWMwLjg2LDAsMC44NiwwLDAuODYsMCAgICAgIGMwLjMyLDAsMC41Ny0wLjI5LDAuNTctMC42MWMwLTEuOTIsMC0xLjkyLDAtMS45MmwwLDBjMC4zMiwwLDAuNjEtMC4yOSwwLjYxLTAuNjFjMC0yLjcsMC0yLjcsMC0yLjcgICAgICBDMy4yMiwzNC44NywyLjkzLDM0LjU5LDIuNjEsMzQuNTl6Ii8+JiN4YTsJCQk8L2c+JiN4YTsJCTwvZz4mI3hhOwkJPGcgaWQ9Imdyb3VwNjA4OC0yMiIgdHJhbnNmb3JtPSJ0cmFuc2xhdGUoMTQuMzQyMiwtMTIuMzc1KSI+JiN4YTsJCQk8dGl0bGU+UG93ZXJTaGVsbCAjMi4zNjM1PC90aXRsZT4mI3hhOwkJCTxnIGlkPSJzaGFwZTYwODktMjMiPiYjeGE7CQkJCTx0aXRsZT5TaGVldC42MDg5PC90aXRsZT4mI3hhOwkJCQk8cGF0aCBzdHlsZT0iZmlsbDojM0Y1NzY1OyIgZD0iTTEwLjUzLDQxLjA0SDAuNzRDMC4zMyw0MS4wNCwwLDQwLjcsMCw0MC4zdi05Ljc4YzAtMC40MSwwLjM0LTAuNzMsMC43NC0wLjczaDkuNzkgICAgICBjMC40MiwwLDAuNzQsMC4zNCwwLjc0LDAuNzN2OS43OEMxMS4yNyw0MC43MiwxMC45NSw0MS4wNCwxMC41Myw0MS4wNHoiLz4mI3hhOwkJCTwvZz4mI3hhOwkJPC9nPiYjeGE7CQk8ZyBpZD0iZ3JvdXA2MDkwLTI1IiB0cmFuc2Zvcm09InRyYW5zbGF0ZSgxNS40MjQxLC0xMy4xMzc0KSI+JiN4YTsJCQk8dGl0bGU+VXNlciAjMTwvdGl0bGU+JiN4YTsJCQk8ZyBpZD0iZ3JvdXA2MDkxLTI2IiB0cmFuc2Zvcm09InRyYW5zbGF0ZSgyLjMwMTM5LC0zLjY3ODEzKSI+JiN4YTsJCQkJPHRpdGxlPlNoZWV0LjYwOTE8L3RpdGxlPiYjeGE7CQkJCTxnIGlkPSJzaGFwZTYwOTItMjciPiYjeGE7CQkJCQk8dGl0bGU+U2hlZXQuNjA5MjwvdGl0bGU+JiN4YTsJCQkJCTxwYXRoIHN0eWxlPSJmaWxsOiNGRkZGRkY7IiBkPSJNMi4xMSwzNS4zMmMtMS4zMywwLjMzLTIuMTEsMS44LTEuNzQsMy4yOXMxLjc1LDIuNDMsMy4wOCwyLjFjMS4zMy0wLjM0LDIuMTEtMS44MSwxLjc0LTMuMyAgICAgICBTMy40NCwzNC45OSwyLjExLDM1LjMyeiIvPiYjeGE7CQkJCTwvZz4mI3hhOwkJCTwvZz4mI3hhOwkJCTxnIGlkPSJncm91cDYwOTMtMjkiPiYjeGE7CQkJCTx0aXRsZT5TaGVldC42MDkzPC90aXRsZT4mI3hhOwkJCQk8ZyBpZD0ic2hhcGU2MDk0LTMwIj4mI3hhOwkJCQkJPHRpdGxlPlNoZWV0LjYwOTQ8L3RpdGxlPiYjeGE7CQkJCQk8cGF0aCBzdHlsZT0iZmlsbDojRkZGRkZGOyIgZD0iTTcuMjgsMzcuNDJjLTAuMjUtMC4wMS0wLjUzLDAuNDYtMC45LDAuNjRjLTAuMzcsMC4xNy0wLjc3LDAuNTEtMS44NCwwICAgICAgIGMtMS4wNy0wLjUyLTEuMjQtMC45NS0yLjE2LTAuOTVjLTAuOSwwLTIuMzUsMS42LTIuMzgsMy45M2g5LjExYy0wLjAyLDAtMC4xMS0xLjYtMC42MS0yLjQ4QzcuODcsMzcuNDUsNy41MywzNy40NCw3LjI4LDM3LjQyICAgICAgIHoiLz4mI3hhOwkJCQk8L2c+JiN4YTsJCQk8L2c+JiN4YTsJCTwvZz4mI3hhOwkJPGcgaWQ9Imdyb3VwNjA5NS0zMiIgdHJhbnNmb3JtPSJ0cmFuc2xhdGUoMjUuNjc3OCw3LjgxNTk3RS0xNCkiPiYjeGE7CQkJPHRpdGxlPlBvd2VyU2hlbGwgIzIuMzY0NTwvdGl0bGU+JiN4YTsJCQk8ZyBpZD0ic2hhcGU2MDk2LTMzIj4mI3hhOwkJCQk8dGl0bGU+U2hlZXQuNjA5NjwvdGl0bGU+JiN4YTsJCQkJPHBhdGggc3R5bGU9ImZpbGw6IzNGNTc2NTsiIGQ9Ik0xMC41Myw0MS4wNEgwLjc0QzAuMzMsNDEuMDQsMCw0MC43LDAsNDAuM3YtOS43OGMwLTAuNDEsMC4zNC0wLjczLDAuNzQtMC43M2g5Ljc5ICAgICAgYzAuNDIsMCwwLjc0LDAuMzQsMC43NCwwLjczdjkuNzhDMTEuMjcsNDAuNzIsMTAuOTUsNDEuMDQsMTAuNTMsNDEuMDR6Ii8+JiN4YTsJCQk8L2c+JiN4YTsJCTwvZz4mI3hhOwkJPGcgaWQ9Imdyb3VwNjA5Ny0zNSIgdHJhbnNmb3JtPSJ0cmFuc2xhdGUoMjYuNzU5NywtMC43NjIzOTUpIj4mI3hhOwkJCTx0aXRsZT5Vc2VyICMxLjM2NDc8L3RpdGxlPiYjeGE7CQkJPGcgaWQ9Imdyb3VwNjA5OC0zNiIgdHJhbnNmb3JtPSJ0cmFuc2xhdGUoMi4zMDEzOSwtMy42NzgxMykiPiYjeGE7CQkJCTx0aXRsZT5TaGVldC42MDk4PC90aXRsZT4mI3hhOwkJCQk8ZyBpZD0ic2hhcGU2MDk5LTM3Ij4mI3hhOwkJCQkJPHRpdGxlPlNoZWV0LjYwOTk8L3RpdGxlPiYjeGE7CQkJCQk8cGF0aCBzdHlsZT0iZmlsbDojRkZGRkZGOyIgZD0iTTIuMTEsMzUuMzJjLTEuMzMsMC4zMy0yLjExLDEuOC0xLjc0LDMuMjlzMS43NSwyLjQzLDMuMDgsMi4xYzEuMzMtMC4zNCwyLjExLTEuODEsMS43NC0zLjMgICAgICAgUzMuNDQsMzQuOTksMi4xMSwzNS4zMnoiLz4mI3hhOwkJCQk8L2c+JiN4YTsJCQk8L2c+JiN4YTsJCQk8ZyBpZD0iZ3JvdXA2MTAwLTM5Ij4mI3hhOwkJCQk8dGl0bGU+U2hlZXQuNjEwMDwvdGl0bGU+JiN4YTsJCQkJPGcgaWQ9InNoYXBlNjEwMS00MCI+JiN4YTsJCQkJCTx0aXRsZT5TaGVldC42MTAxPC90aXRsZT4mI3hhOwkJCQkJPHBhdGggc3R5bGU9ImZpbGw6I0ZGRkZGRjsiIGQ9Ik03LjI4LDM3LjQyYy0wLjI1LTAuMDEtMC41MywwLjQ2LTAuOSwwLjY0Yy0wLjM3LDAuMTctMC43NywwLjUxLTEuODQsMCAgICAgICBjLTEuMDctMC41Mi0xLjI0LTAuOTUtMi4xNi0wLjk1Yy0wLjksMC0yLjM1LDEuNi0yLjM4LDMuOTNoOS4xMWMtMC4wMiwwLTAuMTEtMS42LTAuNjEtMi40OEM3Ljg3LDM3LjQ1LDcuNTMsMzcuNDQsNy4yOCwzNy40MiAgICAgICB6Ii8+JiN4YTsJCQkJPC9nPiYjeGE7CQkJPC9nPiYjeGE7CQk8L2c+JiN4YTsJPC9nPiYjeGE7PC9nPiYjeGE7PC9zdmc+;" parent="1" vertex="1">
          <mxGeometry x="388" y="319.5" width="44" height="41" as="geometry" />
        </mxCell>
        <mxCell id="BkMy49ze9qn0hu9Yu05o-12" value="recognition&#xa;comparison" style="shape=image;verticalLabelPosition=bottom;labelBackgroundColor=#ffffff;verticalAlign=top;aspect=fixed;imageAspect=0;image=data:image/svg+xml,PHN2ZyB4bWxuczpjYz0iaHR0cDovL2NyZWF0aXZlY29tbW9ucy5vcmcvbnMjIiB4bWxuczpkYz0iaHR0cDovL3B1cmwub3JnL2RjL2VsZW1lbnRzLzEuMS8iIHhtbG5zOmlua3NjYXBlPSJodHRwOi8vd3d3Lmlua3NjYXBlLm9yZy9uYW1lc3BhY2VzL2lua3NjYXBlIiB4bWxuczpyZGY9Imh0dHA6Ly93d3cudzMub3JnLzE5OTkvMDIvMjItcmRmLXN5bnRheC1ucyMiIHhtbG5zOnNvZGlwb2RpPSJodHRwOi8vc29kaXBvZGkuc291cmNlZm9yZ2UubmV0L0RURC9zb2RpcG9kaS0wLmR0ZCIgeG1sbnM6c3ZnPSJodHRwOi8vd3d3LnczLm9yZy8yMDAwL3N2ZyIgeG1sbnM9Imh0dHA6Ly93d3cudzMub3JnLzIwMDAvc3ZnIiB4bWxuczp4bGluaz0iaHR0cDovL3d3dy53My5vcmcvMTk5OS94bGluayIgdmVyc2lvbj0iMS4xIiBpZD0ic3ZnOTMzMjMiIGlua3NjYXBlOnZlcnNpb249IjAuOTIuMyAoMjQwNTU0NiwgMjAxOC0wMy0xMSkiIHNvZGlwb2RpOmRvY25hbWU9InByZV92aXN1YWxpemUuc3ZnIiB4PSIwcHgiIHk9IjBweCIgdmlld0JveD0iMCAwIDQwLjQxIDQwLjM4IiBzdHlsZT0iZW5hYmxlLWJhY2tncm91bmQ6bmV3IDAgMCA0MC40MSA0MC4zODsiIHhtbDpzcGFjZT0icHJlc2VydmUiPiYjeGE7PHNvZGlwb2RpOm5hbWVkdmlldyBib3JkZXJjb2xvcj0iIzY2NjY2NiIgYm9yZGVyb3BhY2l0eT0iMSIgZml0LW1hcmdpbi1ib3R0b209IjAiIGZpdC1tYXJnaW4tbGVmdD0iMCIgZml0LW1hcmdpbi1yaWdodD0iMCIgZml0LW1hcmdpbi10b3A9IjAiIGdyaWR0b2xlcmFuY2U9IjEwIiBndWlkZXRvbGVyYW5jZT0iMTAiIGlkPSJuYW1lZHZpZXc5MzMyNSIgaW5rc2NhcGU6Y3VycmVudC1sYXllcj0ic3ZnOTMzMjMiIGlua3NjYXBlOmN4PSIyNi45MzY2NjEiIGlua3NjYXBlOmN5PSIyNi45MjE4OTQiIGlua3NjYXBlOnBhZ2VvcGFjaXR5PSIwIiBpbmtzY2FwZTpwYWdlc2hhZG93PSIyIiBpbmtzY2FwZTp3aW5kb3ctaGVpZ2h0PSIxMDE3IiBpbmtzY2FwZTp3aW5kb3ctbWF4aW1pemVkPSIxIiBpbmtzY2FwZTp3aW5kb3ctd2lkdGg9IjE5MjAiIGlua3NjYXBlOndpbmRvdy14PSItOCIgaW5rc2NhcGU6d2luZG93LXk9Ii04IiBpbmtzY2FwZTp6b29tPSIxNS41MjE2OTIiIG9iamVjdHRvbGVyYW5jZT0iMTAiIHBhZ2Vjb2xvcj0iI2ZmZmZmZiIgc2hvd2dyaWQ9ImZhbHNlIj4mI3hhOwk8L3NvZGlwb2RpOm5hbWVkdmlldz4mI3hhOzxnIGlkPSJnOTMzMjEiIHRyYW5zZm9ybT0idHJhbnNsYXRlKC0wLjc1MzMxOTkxLC0wLjc1MzUyNjcxKSI+JiN4YTsJPHRpdGxlIGlkPSJ0aXRsZTkzMjcxIj5QYWdlLTE8L3RpdGxlPiYjeGE7CTxnIGlkPSJncm91cDU4NDMtMSIgdHJhbnNmb3JtPSJ0cmFuc2xhdGUoMC44MzgzNjksLTAuODQzKSI+JiN4YTsJCTx0aXRsZSBpZD0idGl0bGU5MzI3MyI+UHJlLVZpc3VhbGl6ZTwvdGl0bGU+JiN4YTsJCTxnIGlkPSJzaGFwZTU4NDQtMiIgdHJhbnNmb3JtPSJ0cmFuc2xhdGUoMC4wMDI2NjYxNykiPiYjeGE7CQkJPHRpdGxlIGlkPSJ0aXRsZTkzMjc1Ij5wYXRoNTc2NTwvdGl0bGU+JiN4YTsJCQk8cGF0aCBpZD0icGF0aDkzMjc3IiBpbmtzY2FwZTpjb25uZWN0b3ItY3VydmF0dXJlPSIwIiBzdHlsZT0iZmlsbDojNDQ0NTQ1OyIgZD0iTTAuMDEsNDBjMC4zOSwxLjQzLDEuODcsMi4yOCwzLjMsMS44OSAgICAgYzAuNDQtMC4xMiwwLjg1LTAuMzUsMS4xOC0wLjY4bDguNzItOC43MWwyLjg1LTIuODZsMS4yNy0xLjI3YzEuMDUtMS4wNSwxLjA1LTIuNzUsMC0zLjhjLTEuMDYtMS4wMy0yLjc0LTEuMDMtMy44LDBsLTQuMTEsNC4xMSAgICAgTDAuNjksMzcuNEMwLjAxLDM4LjA4LTAuMjUsMzkuMDcsMC4wMSw0MHoiLz4mI3hhOwkJPC9nPiYjeGE7CQk8ZyBpZD0ic2hhcGU1ODQ1LTQiIHRyYW5zZm9ybT0idHJhbnNsYXRlKDAsLTEuODkxMDkpIj4mI3hhOwkJCTx0aXRsZSBpZD0idGl0bGU5MzI4MCI+cGF0aDU3Njc8L3RpdGxlPiYjeGE7CQkJPHBhdGggaWQ9InBhdGg5MzI4MiIgaW5rc2NhcGU6Y29ubmVjdG9yLWN1cnZhdHVyZT0iMCIgc3R5bGU9ImZpbGw6IzZENkU3MTsiIGQ9Ik0wLjAxLDQxLjg5bDE2LjEyLTE2LjE0ICAgICBjLTAuOTItMC4yNS0xLjkxLDAuMDEtMi41OSwwLjY5TDAuNywzOS4yOUMwLjAyLDM5Ljk3LTAuMjQsNDAuOTYsMC4wMSw0MS44OXoiLz4mI3hhOwkJPC9nPiYjeGE7CQk8ZyBpZD0ic2hhcGU1ODQ2LTYiIHRyYW5zZm9ybT0idHJhbnNsYXRlKDEyLjIwNDEsLTE2LjI5MzQpIj4mI3hhOwkJCTx0aXRsZSBpZD0idGl0bGU5MzI4NSI+cGF0aDU3Njk8L3RpdGxlPiYjeGE7CQkJPHBhdGggaWQ9InBhdGg5MzI4NyIgaW5rc2NhcGU6Y29ubmVjdG9yLWN1cnZhdHVyZT0iMCIgc3R5bGU9ImZpbGw6IzQ0NDU0NTsiIGQ9Ik0wLDMxLjkzQy0wLjAxLDM5LjY5LDYuMjgsNDYsMTQuMDQsNDYuMDEgICAgIGM3Ljc2LDAuMDEsMTQuMDctNi4yOCwxNC4wOC0xNC4wNFMyMS44NCwxNy45LDE0LjA4LDE3Ljg5Yy0wLjAxLDAtMC4wMSwwLTAuMDIsMEM2LjMyLDE3Ljg2LDAuMDMsMjQuMTIsMCwzMS44NiAgICAgQzAsMzEuODgsMCwzMS45MSwwLDMxLjkzeiIvPiYjeGE7CQk8L2c+JiN4YTsJCTxnIGlkPSJzaGFwZTU4NDctOCIgdHJhbnNmb3JtPSJ0cmFuc2xhdGUoMTQuMjE4LC0xNC4xODM0KSI+JiN4YTsJCQk8dGl0bGUgaWQ9InRpdGxlOTMyOTAiPnBhdGg1NzcxPC90aXRsZT4mI3hhOwkJCTxwYXRoIGlkPSJwYXRoOTMyOTIiIGlua3NjYXBlOmNvbm5lY3Rvci1jdXJ2YXR1cmU9IjAiIHN0eWxlPSJmaWxsOiNGRkZGRkY7IiBkPSJNMCwyOS44MmMtMC4wMSw0Ljk0LDMsOS4zOCw3LjU5LDExLjIxICAgICBjMS40MSwwLjU3LDIuOTMsMC44Niw0LjQ1LDAuODZjNi42Ni0wLjAxLDEyLjA1LTUuNDEsMTIuMDQtMTIuMDdjMC0wLjIsMC0wLjQxLDAtMC42MWMtMC4zNS02LjQtNS42My0xMS40MS0xMi4wMy0xMS40MiAgICAgQzUuNjQsMTcuOCwwLjM1LDIyLjgyLDAuMDIsMjkuMjNDMC4wMSwyOS40MywwLDI5LjYzLDAsMjkuODJ6Ii8+JiN4YTsJCTwvZz4mI3hhOwkJPGcgaWQ9InNoYXBlNTg0OC0xMCIgdHJhbnNmb3JtPSJyb3RhdGUoLTQ0Ljk1LC00Ljc1MjI0NzUsMjEuMjE2NjM3KSI+JiN4YTsJCQk8dGl0bGUgaWQ9InRpdGxlOTMyOTUiPnJlY3Q1NzczPC90aXRsZT4mI3hhOwkJCSYjeGE7CQkJCTxyZWN0IGlkPSJyZWN0OTMyOTciIHg9IjAiIHk9IjM2LjUxIiB0cmFuc2Zvcm09Im1hdHJpeCgtMSAzLjE2MTU1OWUtMDYgLTMuMTYxNTU5ZS0wNiAtMSA0LjAzMTYgNzguNDA1NikiIHN0eWxlPSJmaWxsOiM4MDgyODU7IiB3aWR0aD0iNC4wMyIgaGVpZ2h0PSI1LjM4Ii8+JiN4YTsJCTwvZz4mI3hhOwkJPGcgaWQ9InNoYXBlNTg0OS0xMiIgdHJhbnNmb3JtPSJ0cmFuc2xhdGUoMTUuNDM2LC0xOC44MjM4KSI+JiN4YTsJCQk8dGl0bGUgaWQ9InRpdGxlOTMzMDAiPnBhdGg1Nzc1PC90aXRsZT4mI3hhOwkJCTxwYXRoIGlkPSJwYXRoOTMzMDIiIGlua3NjYXBlOmNvbm5lY3Rvci1jdXJ2YXR1cmU9IjAiIHN0eWxlPSJmaWxsOiM1NUE1RTQ7IiBkPSJNMjEuNTIsMzQuNjFjMCwyLjE0LTQuODIsNy4yOC0xMC43Niw3LjI4ICAgICBTMCwzNi43NSwwLDM0LjYxYzAtMi4zMyw0LjgyLTYuOCwxMC43Ni02LjhTMjEuNTIsMzIuNDgsMjEuNTIsMzQuNjF6Ii8+JiN4YTsJCTwvZz4mI3hhOwkJPGcgaWQ9InNoYXBlNTg1MC0xNCIgdHJhbnNmb3JtPSJ0cmFuc2xhdGUoMjEuNDg4NywtMjAuNzk2NikiPiYjeGE7CQkJPHRpdGxlIGlkPSJ0aXRsZTkzMzA1Ij5jaXJjbGU1Nzc3PC90aXRsZT4mI3hhOwkJCTxjaXJjbGUgaWQ9ImVsbGlwc2U5MzMwNyIgc3R5bGU9ImZpbGw6I0ZGRkZGRjsiIGN4PSI0LjcxIiBjeT0iMzcuMTkiIHI9IjQuNzEiLz4mI3hhOwkJPC9nPiYjeGE7CQk8ZyBpZD0ic2hhcGU1ODUxLTE2IiB0cmFuc2Zvcm09InRyYW5zbGF0ZSgyMi44MzM4LC0yMi4xNDE2KSI+JiN4YTsJCQk8dGl0bGUgaWQ9InRpdGxlOTMzMTAiPmNpcmNsZTU3Nzk8L3RpdGxlPiYjeGE7CQkJPGNpcmNsZSBpZD0iZWxsaXBzZTkzMzEyIiBzdHlsZT0iZmlsbDojMkI4RkRFOyIgY3g9IjMuMzYiIGN5PSIzOC41MyIgcj0iMy4zNiIvPiYjeGE7CQk8L2c+JiN4YTsJCTxnIGlkPSJzaGFwZTU4NTItMTgiIHRyYW5zZm9ybT0idHJhbnNsYXRlKDI1LjUyMzksLTI2LjE3NjgpIj4mI3hhOwkJCTx0aXRsZSBpZD0idGl0bGU5MzMxNSI+Y2lyY2xlNTc4MTwvdGl0bGU+JiN4YTsJCQk8Y2lyY2xlIGlkPSJlbGxpcHNlOTMzMTciIHN0eWxlPSJmaWxsOiNGRkZGRkY7IiBjeD0iMS42OCIgY3k9IjQwLjIxIiByPSIxLjY4Ii8+JiN4YTsJCTwvZz4mI3hhOwk8L2c+JiN4YTs8L2c+JiN4YTs8L3N2Zz4=;" parent="1" vertex="1">
          <mxGeometry x="573" y="320" width="40" height="40" as="geometry" />
        </mxCell>
        <mxCell id="BkMy49ze9qn0hu9Yu05o-13" value="" style="rounded=1;whiteSpace=wrap;html=1;" parent="1" vertex="1">
          <mxGeometry x="170" y="200" width="480" height="100" as="geometry" />
        </mxCell>
        <mxCell id="BkMy49ze9qn0hu9Yu05o-14" value="application&lt;br&gt;module" style="text;html=1;strokeColor=none;fillColor=none;align=center;verticalAlign=middle;whiteSpace=wrap;rounded=0;" parent="1" vertex="1">
          <mxGeometry x="100" y="240" width="40" height="20" as="geometry" />
        </mxCell>
        <mxCell id="BkMy49ze9qn0hu9Yu05o-15" value="user &#xa;management" style="shape=image;verticalLabelPosition=bottom;labelBackgroundColor=#ffffff;verticalAlign=top;aspect=fixed;imageAspect=0;image=data:image/svg+xml,PHN2ZyB4bWxuczpjYz0iaHR0cDovL2NyZWF0aXZlY29tbW9ucy5vcmcvbnMjIiB4bWxuczpkYz0iaHR0cDovL3B1cmwub3JnL2RjL2VsZW1lbnRzLzEuMS8iIHhtbG5zOmlua3NjYXBlPSJodHRwOi8vd3d3Lmlua3NjYXBlLm9yZy9uYW1lc3BhY2VzL2lua3NjYXBlIiB4bWxuczpyZGY9Imh0dHA6Ly93d3cudzMub3JnLzE5OTkvMDIvMjItcmRmLXN5bnRheC1ucyMiIHhtbG5zOnNvZGlwb2RpPSJodHRwOi8vc29kaXBvZGkuc291cmNlZm9yZ2UubmV0L0RURC9zb2RpcG9kaS0wLmR0ZCIgeG1sbnM6c3ZnPSJodHRwOi8vd3d3LnczLm9yZy8yMDAwL3N2ZyIgeG1sbnM9Imh0dHA6Ly93d3cudzMub3JnLzIwMDAvc3ZnIiB4bWxuczp4bGluaz0iaHR0cDovL3d3dy53My5vcmcvMTk5OS94bGluayIgdmVyc2lvbj0iMS4xIiBpZD0ic3ZnNTc1ODIiIGlua3NjYXBlOnZlcnNpb249IjAuOTIuMyAoMjQwNTU0NiwgMjAxOC0wMy0xMSkiIHNvZGlwb2RpOmRvY25hbWU9ImFmZmlsaWF0ZV9wdWJsaXNoZXIuc3ZnIiB4PSIwcHgiIHk9IjBweCIgdmlld0JveD0iMCAwIDgwLjE5IDc0LjE0IiBzdHlsZT0iZW5hYmxlLWJhY2tncm91bmQ6bmV3IDAgMCA4MC4xOSA3NC4xNDsiIHhtbDpzcGFjZT0icHJlc2VydmUiPiYjeGE7PHNvZGlwb2RpOm5hbWVkdmlldyBib3JkZXJjb2xvcj0iIzY2NjY2NiIgYm9yZGVyb3BhY2l0eT0iMSIgZml0LW1hcmdpbi1ib3R0b209IjAiIGZpdC1tYXJnaW4tbGVmdD0iMCIgZml0LW1hcmdpbi1yaWdodD0iMCIgZml0LW1hcmdpbi10b3A9IjAiIGdyaWR0b2xlcmFuY2U9IjEwIiBndWlkZXRvbGVyYW5jZT0iMTAiIGlkPSJuYW1lZHZpZXc1NzU4NCIgaW5rc2NhcGU6Y3VycmVudC1sYXllcj0ic3ZnNTc1ODIiIGlua3NjYXBlOmN4PSI1My40NjI0MDIiIGlua3NjYXBlOmN5PSI0OS40Mjg5NTEiIGlua3NjYXBlOnBhZ2VvcGFjaXR5PSIwIiBpbmtzY2FwZTpwYWdlc2hhZG93PSIyIiBpbmtzY2FwZTp3aW5kb3ctaGVpZ2h0PSIxMDE3IiBpbmtzY2FwZTp3aW5kb3ctbWF4aW1pemVkPSIxIiBpbmtzY2FwZTp3aW5kb3ctd2lkdGg9IjE5MjAiIGlua3NjYXBlOndpbmRvdy14PSItOCIgaW5rc2NhcGU6d2luZG93LXk9Ii04IiBpbmtzY2FwZTp6b29tPSI4Ljc3MTAxNCIgb2JqZWN0dG9sZXJhbmNlPSIxMCIgcGFnZWNvbG9yPSIjZmZmZmZmIiBzaG93Z3JpZD0iZmFsc2UiPiYjeGE7CTwvc29kaXBvZGk6bmFtZWR2aWV3PiYjeGE7PGcgaWQ9Imc1NzU4MCIgdHJhbnNmb3JtPSJ0cmFuc2xhdGUoMCwtMS4wNzA0NzU3ZS00KSI+JiN4YTsJPHRpdGxlIGlkPSJ0aXRsZTU3NTczIj5QYWdlLTE8L3RpdGxlPiYjeGE7CTxnIGlkPSJzaGFwZTU0ODUtMSI+JiN4YTsJCTx0aXRsZSBpZD0idGl0bGU1NzU3NSI+QWZmaWxpYXRlIFB1Ymxpc2hlcjwvdGl0bGU+JiN4YTsJCTxwYXRoIGlkPSJwYXRoNTc1NzciIGlua3NjYXBlOmNvbm5lY3Rvci1jdXJ2YXR1cmU9IjAiIHN0eWxlPSJmaWxsOiMzRjU3NjU7IiBkPSJNNjIuMzMsMjAuMTRjMCwwLDAuMTEsMCwxMy44NSwwICAgIGMyLjIyLDAsNC4wMSwxLjk2LDQuMDEsNC4zM2MwLDAsMCwwLjE1LDAsMjAuNDFjMCwyLjM3LTEuNzksNC4zMy00LjAxLDQuMzNjMCwwLDAsMC4xMSwwLDE0LjU1YzAsMi4zNy0xLjgsNC4zMy00LjAyLDQuMzMgICAgYzAsMC0wLjA0LDAtNi4wMSwwYy0yLjAzLDAtMy44Mi0xLjk2LTMuODItNC4zM2MwLDAsMC0wLjEyLDAtMTQuNTVjLTIuMjIsMC00LjAyLTEuOTYtNC4wMi00LjMzYzAsMCwwLTAuMTUsMC0yMC40MSAgICBDNTguMzEsMjIuMSw2MC4xMSwyMC4xNCw2Mi4zMywyMC4xNHogTTQuMDIsMjAuMTRjMCwwLDAuMDcsMCwxMy44MSwwYzIuMTgsMCwzLjk4LDEuOTYsMy45OCw0LjMzYzAsMCwwLDAuMDgsMCwyMC40MSAgICBjMCwyLjM3LTEuOCw0LjMzLTMuOTgsNC4zM2MwLDAsMCwwLjA3LDAsMTQuNTVjMCwyLjM3LTEuOCw0LjMzLTMuNzksNC4zM2MwLDAtMC4wNywwLTYuMDEsMGMtMi4yMSwwLTQuMDEtMS45Ni00LjAxLTQuMzMgICAgYzAsMCwwLTAuMDgsMC0xNC41NUMxLjg0LDQ5LjIxLDAsNDcuMjUsMCw0NC44OGMwLDAsMC0wLjA4LDAtMjAuNDFDMCwyMi4xLDEuODQsMjAuMTQsNC4wMiwyMC4xNHogTTMyLjA2LDE4LjE5ICAgIGMwLDAsMC4xNiwwLDE2LjA3LDBjMi42NCwwLDQuODIsMi40MSw0LjgyLDUuMjFjMCwwLDAsMC4xNSwwLDIzLjY2YzAsMi44LTIuMTgsNS4yMS00LjgyLDUuMjFjMCwwLDAsMC4xMiwwLDE2LjcgICAgYzAsMi43OS0xLjk5LDUuMTctNC41OSw1LjE3YzAsMC0wLjA4LDAtNi44NSwwYy0yLjYsMC00LjYzLTIuMzgtNC42My01LjE3YzAsMCwwLTAuMTYsMC0xNi43Yy0yLjYsMC00LjgyLTIuNDEtNC44Mi01LjIxICAgIGMwLDAsMC0wLjE1LDAtMjMuNjZDMjcuMjQsMjAuNiwyOS40NiwxOC4xOSwzMi4wNiwxOC4xOXogTTY5LjI1LDQuNTJjMy42NCwwLDYuNTQsMy4yMiw2LjU0LDcuMTZzLTIuOSw3LjE2LTYuNTQsNy4xNiAgICBjLTMuNiwwLTYuNS0zLjIyLTYuNS03LjE2UzY1LjY1LDQuNTIsNjkuMjUsNC41MnogTTEwLjksNC41MmMzLjYsMCw2LjUxLDMuMjIsNi41MSw3LjE2cy0yLjkxLDcuMTYtNi41MSw3LjE2ICAgIGMtMy41NSwwLTYuNDYtMy4yMi02LjQ2LTcuMTZTNy4zNSw0LjUyLDEwLjksNC41MnogTTQwLjA2LDBjNC4yNSwwLDcuNjUsMy43NSw3LjY1LDguMzVjMCw0LjU1LTMuNCw4LjMxLTcuNjUsOC4zMSAgICBjLTQuMjEsMC03LjYyLTMuNzYtNy42Mi04LjMxQzMyLjQ0LDMuNzUsMzUuODUsMCw0MC4wNiwweiIvPiYjeGE7CTwvZz4mI3hhOzwvZz4mI3hhOzwvc3ZnPg==;" parent="1" vertex="1">
          <mxGeometry x="210" y="217" width="46" height="44" as="geometry" />
        </mxCell>
        <mxCell id="BkMy49ze9qn0hu9Yu05o-16" value="searching" style="shape=image;verticalLabelPosition=bottom;labelBackgroundColor=#ffffff;verticalAlign=top;aspect=fixed;imageAspect=0;image=data:image/svg+xml,PHN2ZyB4bWxuczpkYz0iaHR0cDovL3B1cmwub3JnL2RjL2VsZW1lbnRzLzEuMS8iIHhtbG5zOmNjPSJodHRwOi8vY3JlYXRpdmVjb21tb25zLm9yZy9ucyMiIHhtbG5zOnJkZj0iaHR0cDovL3d3dy53My5vcmcvMTk5OS8wMi8yMi1yZGYtc3ludGF4LW5zIyIgeG1sbnM6c3ZnPSJodHRwOi8vd3d3LnczLm9yZy8yMDAwL3N2ZyIgeG1sbnM9Imh0dHA6Ly93d3cudzMub3JnLzIwMDAvc3ZnIiB4bWxuczp4bGluaz0iaHR0cDovL3d3dy53My5vcmcvMTk5OS94bGluayIgeG1sbnM6c29kaXBvZGk9Imh0dHA6Ly9zb2RpcG9kaS5zb3VyY2Vmb3JnZS5uZXQvRFREL3NvZGlwb2RpLTAuZHRkIiB4bWxuczppbmtzY2FwZT0iaHR0cDovL3d3dy5pbmtzY2FwZS5vcmcvbmFtZXNwYWNlcy9pbmtzY2FwZSIgdmVyc2lvbj0iMS4xIiBpZD0iTGF5ZXJfMSIgeD0iMHB4IiB5PSIwcHgiIHZpZXdCb3g9IjAgMCAzNy41MDA4ODEgNDIuMTM0NDY0IiB4bWw6c3BhY2U9InByZXNlcnZlIiBzb2RpcG9kaTpkb2NuYW1lPSJzZWFyY2hfMS5zdmciIHdpZHRoPSIzNy41MDA4ODEiIGhlaWdodD0iNDIuMTM0NDY0IiBpbmtzY2FwZTp2ZXJzaW9uPSIwLjkyLjMgKDI0MDU1NDYsIDIwMTgtMDMtMTEpIj48bWV0YWRhdGEgaWQ9Im1ldGFkYXRhNDcwMzUiPjxyZGY6UkRGPjxjYzpXb3JrIHJkZjphYm91dD0iIj48ZGM6Zm9ybWF0PmltYWdlL3N2Zyt4bWw8L2RjOmZvcm1hdD48ZGM6dHlwZSByZGY6cmVzb3VyY2U9Imh0dHA6Ly9wdXJsLm9yZy9kYy9kY21pdHlwZS9TdGlsbEltYWdlIi8+PGRjOnRpdGxlLz48L2NjOldvcms+PC9yZGY6UkRGPjwvbWV0YWRhdGE+PGRlZnMgaWQ9ImRlZnM0NzAzMyIvPjxzb2RpcG9kaTpuYW1lZHZpZXcgcGFnZWNvbG9yPSIjZmZmZmZmIiBib3JkZXJjb2xvcj0iIzY2NjY2NiIgYm9yZGVyb3BhY2l0eT0iMSIgb2JqZWN0dG9sZXJhbmNlPSIxMCIgZ3JpZHRvbGVyYW5jZT0iMTAiIGd1aWRldG9sZXJhbmNlPSIxMCIgaW5rc2NhcGU6cGFnZW9wYWNpdHk9IjAiIGlua3NjYXBlOnBhZ2VzaGFkb3c9IjIiIGlua3NjYXBlOndpbmRvdy13aWR0aD0iMTkyMCIgaW5rc2NhcGU6d2luZG93LWhlaWdodD0iMTAxNyIgaWQ9Im5hbWVkdmlldzQ3MDMxIiBzaG93Z3JpZD0iZmFsc2UiIGZpdC1tYXJnaW4tdG9wPSIwIiBmaXQtbWFyZ2luLWxlZnQ9IjAiIGZpdC1tYXJnaW4tcmlnaHQ9IjAiIGZpdC1tYXJnaW4tYm90dG9tPSIwIiBpbmtzY2FwZTp6b29tPSIxLjAzMDMwMyIgaW5rc2NhcGU6Y3g9Ii0xNi4zNTU3NDkiIGlua3NjYXBlOmN5PSItMzAxLjk3MTU2IiBpbmtzY2FwZTp3aW5kb3cteD0iLTgiIGlua3NjYXBlOndpbmRvdy15PSItOCIgaW5rc2NhcGU6d2luZG93LW1heGltaXplZD0iMSIgaW5rc2NhcGU6Y3VycmVudC1sYXllcj0iTGF5ZXJfMSIvPiYjeGE7JiN4YTs8ZyBpZD0iZzQ3MDI4IiB0cmFuc2Zvcm09InRyYW5zbGF0ZSgtMzEzLjczMDc1LC03Ni42NDM5ODIpIj4mI3hhOwk8ZGVmcyBpZD0iZGVmczQ3MDAzIj4mI3hhOwkJPHJlY3QgaWQ9IlNWR0lEXzNfIiB4PSIzMTMuNzIiIHk9Ijc2LjYzOTk5OSIgd2lkdGg9IjM3LjU3IiBoZWlnaHQ9IjQyLjQxOTk5OCIvPiYjeGE7CTwvZGVmcz4mI3hhOwk8Y2xpcFBhdGggaWQ9IlNWR0lEXzRfIj4mI3hhOwkJPHVzZSB4bGluazpocmVmPSIjU1ZHSURfM18iIHN0eWxlPSJvdmVyZmxvdzp2aXNpYmxlIiBpZD0idXNlNDcwMDUiIHg9IjAiIHk9IjAiIHdpZHRoPSIxMDAlIiBoZWlnaHQ9IjEwMCUiLz4mI3hhOwk8L2NsaXBQYXRoPiYjeGE7CTxnIGNsaXAtcGF0aD0idXJsKCNTVkdJRF80XykiIGlkPSJnNDcwMjYiPiYjeGE7CQk8ZGVmcyBpZD0iZGVmczQ3MDA5Ij4mI3hhOwkJCTxyZWN0IGlkPSJTVkdJRF81XyIgeD0iMzEzLjcyIiB5PSI3Ni42Mzk5OTkiIHdpZHRoPSIzNy41NyIgaGVpZ2h0PSI0Mi40MTk5OTgiLz4mI3hhOwkJPC9kZWZzPiYjeGE7CQk8Y2xpcFBhdGggaWQ9IlNWR0lEXzZfIj4mI3hhOwkJCTx1c2UgeGxpbms6aHJlZj0iI1NWR0lEXzVfIiBzdHlsZT0ib3ZlcmZsb3c6dmlzaWJsZSIgaWQ9InVzZTQ3MDExIiB4PSIwIiB5PSIwIiB3aWR0aD0iMTAwJSIgaGVpZ2h0PSIxMDAlIi8+JiN4YTsJCTwvY2xpcFBhdGg+JiN4YTsJCTxwYXRoIHN0eWxlPSJmaWxsOiM3OTkwOTkiIGQ9Im0gMzM5LDEwNC40OSBjIDAuNzcsLTAuNjIgMC44NywtMS43NCAwLjI2LC0yLjUxIGwgLTIsLTIuNDQgYyAtMC42MiwtMC43NyAtMS43NCwtMC44NyAtMi41MSwtMC4yNiAtMC43NywwLjYyIC0wLjg3LDEuNzQgLTAuMjYsMi41MSBsIDIuMDMsMi40NCBjIDAuNjQsMC44IDEuNzEsMC45IDIuNDgsMC4yNiB6IiBjbGlwLXBhdGg9InVybCgjU1ZHSURfNl8pIiBpZD0icGF0aDQ3MDE0IiBpbmtzY2FwZTpjb25uZWN0b3ItY3VydmF0dXJlPSIwIi8+JiN4YTsJCTxwYXRoIHN0eWxlPSJmaWxsOiM2NjgwODkiIGQ9Im0gMzE5LjU5LDk3IGMgMS43MiwyLjE1IDQuMjMsMy40NiA2Ljk1LDMuOCAyLjcyLDAuMjggNS40MSwtMC41MSA3LjU2LC0yLjI2IDIuMTUsLTEuNzIgMy41NCwtNC4yMyAzLjc5LC02Ljk1IDAuNTYsLTUuNjcgLTMuNTYsLTEwLjc3IC05LjE4LC0xMS4zMyAtMi43MiwtMC4zMSAtNS40MSwwLjUxIC03LjU2LDIuMjMgLTIuMTUsMS43NCAtMy40OSw0LjIzIC0zLjc3LDYuOTUgLTAuMzUsMi43NCAwLjQ3LDUuNDQgMi4yMSw3LjU2IHogbSAtNS43OSwtNy45NCBjIDAuMzgsLTMuNzIgMi4xOCwtNyA1LjA1LC05LjMxIDIuOSwtMi4zNiA2LjUxLC0zLjQxIDEwLjE1LC0zLjAzIDcuNjQsMC43OSAxMy4xNSw3LjY3IDEyLjM4LDE1LjIzIC0wLjM4LDMuNzIgLTIuMTgsNy4wMyAtNS4xLDkuMzkgLTIuODcsMi4zMyAtNi40NiwzLjQxIC0xMC4xNSwzLjAzIC0zLjcyLC0wLjM4IC03LC0yLjE4IC05LjMzLC01LjA4IC0yLjMxLC0yLjkzIC0zLjM2LC02LjU3IC0zLC0xMC4yMyB6IiBjbGlwLXBhdGg9InVybCgjU1ZHSURfNl8pIiBpZD0icGF0aDQ3MDE2IiBpbmtzY2FwZTpjb25uZWN0b3ItY3VydmF0dXJlPSIwIi8+JiN4YTsJCTxwYXRoIHN0eWxlPSJmaWxsOiNiZGRkZjQiIGQ9Im0gMzIxLjEzLDgyLjQ5IGMgMi4xNSwtMS43MiA0Ljg1LC0yLjQ5IDcuNTYsLTIuMjMgNS42NywwLjU2IDkuOCw1LjY3IDkuMTUsMTEuMzMgLTAuMjYsMi43NyAtMS42Miw1LjIxIC0zLjc3LDYuOTUgLTIuMTUsMS43NCAtNC44NSwyLjUxIC03LjU2LDIuMjYgLTIuNzIsLTAuMjggLTUuMjEsLTEuNjQgLTYuOTUsLTMuOCAtMS43NCwtMi4xMyAtMi41NiwtNC44MiAtMi4yNiwtNy41NyAwLjM0LC0yLjc2IDEuNjgsLTUuMiAzLjgzLC02Ljk0IHoiIGNsaXAtcGF0aD0idXJsKCNTVkdJRF82XykiIGlkPSJwYXRoNDcwMTgiIGlua3NjYXBlOmNvbm5lY3Rvci1jdXJ2YXR1cmU9IjAiLz4mI3hhOwkJPHBhdGggc3R5bGU9ImZpbGw6I2YxZjJmMiIgZD0ibSAzMTkuNTksOTcgYyAtMS43NCwtMi4xMyAtMi41NiwtNC44MiAtMi4yNiwtNy41NyAwLjEsLTAuNzcgMC4yMywtMS41NCAwLjUxLC0yLjI2IDAuNjQsLTEuMSAxLjQ2LC0yLjAzIDIuNDQsLTIuODIgMi4xNSwtMS43NCA0Ljg1LC0yLjUxIDcuNTYsLTIuMjYgNS42OSwwLjU5IDkuODIsNS42NyA5LjE4LDExLjM2IC0wLjEsMC43NyAtMC4yMywxLjU0IC0wLjUxLDIuMjYgLTAuNjQsMS4xIC0xLjQ0LDIuMDMgLTIuNDQsMi44MiAtMi4xNSwxLjc0IC00Ljg1LDIuNTEgLTcuNTYsMi4yNiAtMi42OSwtMC4yNyAtNS4yLC0xLjYzIC02LjkyLC0zLjc5IHoiIGNsaXAtcGF0aD0idXJsKCNTVkdJRF82XykiIGlkPSJwYXRoNDcwMjAiIGlua3NjYXBlOmNvbm5lY3Rvci1jdXJ2YXR1cmU9IjAiLz4mI3hhOwkJPHBhdGggc3R5bGU9ImZpbGw6IzY1YjhlYSIgZD0ibSAzNDkuOSwxMTcuOTYgdiAwIGMgMS41NCwtMS4yMyAxLjc5LC0zLjUxIDAuNTEsLTUgbCAtNy43MiwtOS41NCBjIC0xLjIxLC0xLjU0IC0zLjQ2LC0xLjcyIC01LC0wLjUxIC0xLjU0LDEuMjMgLTEuNzIsMy40NiAtMC41MSw1IGwgNy43Miw5LjU0IGMgMS4yNiwxLjUzIDMuNDYsMS43OSA1LDAuNTEgeiIgY2xpcC1wYXRoPSJ1cmwoI1NWR0lEXzZfKSIgaWQ9InBhdGg0NzAyMiIgaW5rc2NhcGU6Y29ubmVjdG9yLWN1cnZhdHVyZT0iMCIvPiYjeGE7CQk8cGF0aCBzdHlsZT0iZmlsbDojZTllZGYyIiBkPSJtIDM1MCwxMTYuNDQgYyAwLjU5LC0wLjQ2IDAuNzIsLTEuMzYgMC4yMSwtMS45MiBsIC03Ljc0LC05LjUxIGMgLTAuNDQsLTAuNTkgLTEuMzMsLTAuNzIgLTEuOTIsLTAuMjEgLTAuNTksMC40NiAtMC42OSwxLjM2IC0wLjE4LDEuOTIgbCA3LjcyLDkuNTEgYyAwLjQ1LDAuNiAxLjMsMC42NSAxLjkxLDAuMjEgeiIgY2xpcC1wYXRoPSJ1cmwoI1NWR0lEXzZfKSIgaWQ9InBhdGg0NzAyNCIgaW5rc2NhcGU6Y29ubmVjdG9yLWN1cnZhdHVyZT0iMCIvPiYjeGE7CTwvZz4mI3hhOzwvZz4mI3hhOzwvc3ZnPg==;" parent="1" vertex="1">
          <mxGeometry x="300" y="219.50000000000182" width="38" height="42" as="geometry" />
        </mxCell>
        <mxCell id="BkMy49ze9qn0hu9Yu05o-17" value="configuration&#xa;management" style="shape=image;verticalLabelPosition=bottom;labelBackgroundColor=#ffffff;verticalAlign=top;aspect=fixed;imageAspect=0;image=data:image/svg+xml,PHN2ZyB4bWxuczpjYz0iaHR0cDovL2NyZWF0aXZlY29tbW9ucy5vcmcvbnMjIiB4bWxuczpkYz0iaHR0cDovL3B1cmwub3JnL2RjL2VsZW1lbnRzLzEuMS8iIHhtbG5zOmlua3NjYXBlPSJodHRwOi8vd3d3Lmlua3NjYXBlLm9yZy9uYW1lc3BhY2VzL2lua3NjYXBlIiB4bWxuczpyZGY9Imh0dHA6Ly93d3cudzMub3JnLzE5OTkvMDIvMjItcmRmLXN5bnRheC1ucyMiIHhtbG5zOnNvZGlwb2RpPSJodHRwOi8vc29kaXBvZGkuc291cmNlZm9yZ2UubmV0L0RURC9zb2RpcG9kaS0wLmR0ZCIgeG1sbnM6c3ZnPSJodHRwOi8vd3d3LnczLm9yZy8yMDAwL3N2ZyIgeG1sbnM9Imh0dHA6Ly93d3cudzMub3JnLzIwMDAvc3ZnIiB4bWxuczp4bGluaz0iaHR0cDovL3d3dy53My5vcmcvMTk5OS94bGluayIgdmVyc2lvbj0iMS4xIiBpZD0ic3ZnNjYxODciIGlua3NjYXBlOnZlcnNpb249IjAuOTIuMyAoMjQwNTU0NiwgMjAxOC0wMy0xMSkiIHNvZGlwb2RpOmRvY25hbWU9ImNvbmZpZ3VyYXRpb25zLnN2ZyIgeD0iMHB4IiB5PSIwcHgiIHZpZXdCb3g9IjAgMCA0Ni41IDQ2LjY0IiBzdHlsZT0iZW5hYmxlLWJhY2tncm91bmQ6bmV3IDAgMCA0Ni41IDQ2LjY0OyIgeG1sOnNwYWNlPSJwcmVzZXJ2ZSI+JiN4YTs8c29kaXBvZGk6bmFtZWR2aWV3IGJvcmRlcmNvbG9yPSIjNjY2NjY2IiBib3JkZXJvcGFjaXR5PSIxIiBmaXQtbWFyZ2luLWJvdHRvbT0iMCIgZml0LW1hcmdpbi1sZWZ0PSIwIiBmaXQtbWFyZ2luLXJpZ2h0PSIwIiBmaXQtbWFyZ2luLXRvcD0iMCIgZ3JpZHRvbGVyYW5jZT0iMTAiIGd1aWRldG9sZXJhbmNlPSIxMCIgaWQ9Im5hbWVkdmlldzY2MTg5IiBpbmtzY2FwZTpjdXJyZW50LWxheWVyPSJzdmc2NjE4NyIgaW5rc2NhcGU6Y3g9IjMxLjAwMzYxMiIgaW5rc2NhcGU6Y3k9IjMxLjA4MTY3NyIgaW5rc2NhcGU6cGFnZW9wYWNpdHk9IjAiIGlua3NjYXBlOnBhZ2VzaGFkb3c9IjIiIGlua3NjYXBlOndpbmRvdy1oZWlnaHQ9IjEwMTciIGlua3NjYXBlOndpbmRvdy1tYXhpbWl6ZWQ9IjEiIGlua3NjYXBlOndpbmRvdy13aWR0aD0iMTkyMCIgaW5rc2NhcGU6d2luZG93LXg9Ii04IiBpbmtzY2FwZTp3aW5kb3cteT0iLTgiIGlua3NjYXBlOnpvb209IjEzLjUxMDk3NiIgb2JqZWN0dG9sZXJhbmNlPSIxMCIgcGFnZWNvbG9yPSIjZmZmZmZmIiBzaG93Z3JpZD0iZmFsc2UiPiYjeGE7CTwvc29kaXBvZGk6bmFtZWR2aWV3PiYjeGE7PGcgaWQ9Imc2NjE4NSIgdHJhbnNmb3JtPSJ0cmFuc2xhdGUoLTAuNzQ3MzAxNjksLTAuNzM5Mjk2KSI+JiN4YTsJPHRpdGxlIGlkPSJ0aXRsZTY2MTYwIj5QYWdlLTE8L3RpdGxlPiYjeGE7CTxnIGlkPSJncm91cDUwNjAtMSIgdHJhbnNmb3JtPSJ0cmFuc2xhdGUoMS41MDAwNCwtMS40OTI1NCkiPiYjeGE7CQk8dGl0bGUgaWQ9InRpdGxlNjYxNjIiPkNvbmZpZ3VyYXRpb25zPC90aXRsZT4mI3hhOwkJPGcgaWQ9InNoYXBlNTA2MS0yIj4mI3hhOwkJCTx0aXRsZSBpZD0idGl0bGU2NjE2NCI+cGF0aDE1MTQwPC90aXRsZT4mI3hhOwkJCSYjeGE7CQkJCTxwYXRoIGlkPSJwYXRoNjYxNjYiIGlua3NjYXBlOmNvbm5lY3Rvci1jdXJ2YXR1cmU9IjAiIHN0eWxlPSJmaWxsOiNGRkZGRkY7c3Ryb2tlOiM1NTZBOEE7c3Ryb2tlLXdpZHRoOjEuNTtzdHJva2UtbWl0ZXJsaW1pdDozOyIgZD0iICAgICBNMC44MywyNy41TDQuMTgsMjhjMC4wNSwwLjc2LDAuMTcsMS41MSwwLjM1LDIuMjVsLTIuNzcsMS44MWMtMC40NiwwLjE3LTAuNjksMC42Ny0wLjUyLDEuMTNjMC4wMSwwLjAyLDAuMDIsMC4wNSwwLjAzLDAuMDcgICAgIGwwLjgzLDIuMDJjMC4xNiwwLjM4LDAuNTksMC41NywwLjk4LDAuNDFjMC4wMy0wLjAxLDAuMDctMC4wMywwLjEtMC4wNWwzLjM3LTAuN2wxLjA2LDEuODNMNS42NywzOS40ICAgICBjLTAuMzEsMC4zNC0wLjMxLDAuODYsMCwxLjJsMS42NiwxLjY5YzAuMzYsMC4yNCwwLjg0LDAuMjQsMS4yLDBsMi42NS0xLjg5YzAuNiwwLjM2LDEuMzIsMC44NCwxLjkxLDEuMmwtMC43NSwzLjM2ICAgICBjLTAuMSwwLjM5LDAuMDksMC44LDAuNDcsMC45N2wyLjA1LDAuODRjMC4zNSwwLjIyLDAuODEsMC4xMSwxLjAzLTAuMjRjMC4wMi0wLjAzLDAuMDQtMC4wNywwLjA1LTAuMWwxLjgyLTIuOTkgICAgIGMwLjY5LDAuMjgsMS40MSwwLjQ1LDIuMTUsMC41bDAuNDcsMy4zNGMtMC4wMSwwLjQ2LDAuMzUsMC44MywwLjgsMC44NWMwLjAxLDAsMC4wMiwwLDAuMDMsMGwyLjI1LTAuMTEgICAgIGMwLjM2LDAuMTIsMC43NS0wLjI0LDAuODQtMC41OWwwLjYzLTMuNDhjMC43NS0wLjAzLDEuNDktMC4xNywyLjE5LTAuNDJsMS43OCwzYzAuMjcsMC4zLDAuNjgsMC40NCwxLjA4LDAuMzdsMi4xNi0wLjk0ICAgICBjMC4zOC0wLjE1LDAuNTgtMC41NiwwLjQ5LTAuOTVsLTAuODItMy4yNmMwLjE2LTAuMSwwLjMxLTAuMiwwLjQ2LTAuMzJjMC4xLTAuMDYsMC4yLTAuMTQsMC4zLTAuMjIgICAgIGMwLjM1LTAuMjYsMC43MS0wLjU2LDEuMDUtMC43NWwyLjc1LDIuMDVjMC4zMiwwLjI3LDAuNzksMC4yMywxLjA2LTAuMDhjMC4wMS0wLjAxLDAuMDItMC4wMiwwLjAyLTAuMDNsMS0wLjk5bDAuNTYtMC41NiAgICAgYzAuMzItMC4yNiwwLjM3LTAuNzMsMC4xMS0xLjA2YzAsMCwwLDAsMCwwbC0yLjAyLTIuNzdjMC41My0wLjYyLDAuOTgtMS4zMSwxLjM0LTIuMDRsMy4zNCwwLjk4YzAuNDksMC4wNiwwLjk1LTAuMjIsMS4xMi0wLjY4ICAgICBsMC44NS0yLjA0YzAuMTQtMC40Ni0wLjA2LTAuOTYtMC40Ny0xLjJsLTIuODctMS43YzAuMjUtMC43NSwwLjI1LTEuNDQsMC40OS0yLjE1bDMuMzUtMC40MWMwLjQzLTAuMTMsMC43My0wLjUxLDAuNzUtMC45NiAgICAgdi0yLjE2YzAtMC40NC0wLjI4LTAuODMtMC43LTAuOTdsLTMuNDktMC40MWMtMC4wOC0wLjgxLTAuMjMtMS42MS0wLjQ1LTIuNGwzLTEuNzhjMC4zOS0wLjE1LDAuNTgtMC41OCwwLjQzLTAuOTcgICAgIGMtMC4wMS0wLjA0LTAuMDMtMC4wNy0wLjA1LTAuMTFsLTAuODMtMi4wNGMtMC4yLTAuNC0wLjYyLTAuNjQtMS4wNy0wLjYxbC0zLjM4LDAuOTRjLTAuMzUtMC42LTAuNy0xLjIxLTEuMDYtMS44MWwyLjA2LTIuNzQgICAgIGMwLjE1LTAuMzYsMC4xMS0wLjc3LTAuMTItMS4wOGwtMS42Ni0xLjY1Yy0wLjI5LTAuMjgtMC43My0wLjMzLTEuMDctMC4xM2wtMi43OCwyLjAxYy0wLjYtMC4zOC0xLjMxLTAuODYtMS45MS0xLjIybDAuNzUtMy4zNiAgICAgYzAuMTEtMC4zOS0wLjA5LTAuOC0wLjQ3LTAuOTZMMzAsNC4zOWMtMC40LTAuMTEtMC44MywwLjAyLTEuMDksMC4zNWwtMS42NiwyLjg4Yy0wLjc1LDAtMS40NC0wLjI1LTIuMTYtMC4yNmwtMC4zNC0zLjQ4ICAgICBjLTAuMTMtMC40My0wLjUxLTAuNzMtMC45Ni0wLjc1bC0yLjI1LTAuMTRjLTAuMzksMC4xNC0wLjcsMC40NC0wLjg0LDAuODNsLTAuNTEsMy4zN2MtMC44NCwwLjExLTEuNTYsMC4zNS0yLjQsMC40NWwtMS42OC0yLjg1ICAgICBDMTUuOSw0LjM4LDE1LjQxLDQuMjIsMTUsNC40MmwtMi4wMSwwLjg1Yy0wLjQzLDAuMTYtMC42OCwwLjYtMC42MSwxLjA1bDAuODIsMy4yNWMtMC42NiwwLjM1LTEuMjcsMC43OS0xLjgxLDEuMzFMOC42NCw4LjgyICAgICBjLTAuMjktMC4zMy0wLjgtMC4zNy0xLjEzLTAuMDhDNy40OCw4Ljc3LDcuNDYsOC43OSw3LjQzLDguODJMNiwxMC4yNWwtMC4xMywwLjEyYy0wLjMzLDAuMzEtMC4zNSwwLjgyLTAuMDQsMS4xNiAgICAgYzAuMDEsMC4wMiwwLjAzLDAuMDMsMC4wNCwwLjA0bDIuMDIsMi43N2MtMC40MiwwLjQtMC43NiwwLjg3LTEuMDMsMS4zOWwtMC4wOSwwLjE2Yy0wLjA3LDAuMTUtMC4xNSwwLjMxLTAuMjIsMC40OEwzLjIsMTUuMzkgICAgIGMtMC4zOS0wLjEtMC43OSwwLjEtMC45NSwwLjQ2bC0wLjk5LDIuMTdjLTAuMDcsMC40LDAuMDYsMC44MSwwLjM1LDEuMDlsMywxLjgyYy0wLjI1LDAuNjUtMC4zNywxLjM0LTAuMzgsMi4wNGwtMy40OCwwLjU2ICAgICBDMC40LDIzLjY2LDAsMjQuMDEsMCwyNC4yOHYyLjRjMCwwLjQ1LDAuMzUsMC44MSwwLjgsMC44MkMwLjgxLDI3LjUsMC44MiwyNy41LDAuODMsMjcuNUwwLjgzLDI3LjV6Ii8+JiN4YTsJCTwvZz4mI3hhOwkJPGcgaWQ9InNoYXBlNTA2Mi00IiB0cmFuc2Zvcm09InRyYW5zbGF0ZSgxMS4yNSwtMjAuMzUzNikiPiYjeGE7CQkJPHRpdGxlIGlkPSJ0aXRsZTY2MTY5Ij5wYXRoMTUxNDI8L3RpdGxlPiYjeGE7CQkJJiN4YTsJCQkJPHBhdGggaWQ9InBhdGg2NjE3MSIgaW5rc2NhcGU6Y29ubmVjdG9yLWN1cnZhdHVyZT0iMCIgc3R5bGU9ImZpbGw6I0ZGRkZGRjtzdHJva2U6IzJCQzdGNDtzdHJva2Utd2lkdGg6MS41O3N0cm9rZS1taXRlcmxpbWl0OjM7IiBkPSIgICAgIE0wLjg3LDQxLjZjMi40LTUuNzMsOC45OS04LjQ0LDE0LjcyLTYuMDRjNS43MywyLjQsOC40NCw4Ljk5LDYuMDQsMTQuNzJzLTguOTksOC40NC0xNC43Miw2LjA0QzIuNzQsNTQuNTgsMC4wMiw1MC41MSwwLDQ1Ljk5ICAgICBDLTAuMDEsNDQuNDgsMC4yOSw0Mi45OSwwLjg3LDQxLjZ6Ii8+JiN4YTsJCTwvZz4mI3hhOwkJPGcgaWQ9InNoYXBlNTA2My02IiB0cmFuc2Zvcm09InRyYW5zbGF0ZSgxNi4wNDQ5LC0xNS42OTQ5KSI+JiN4YTsJCQk8dGl0bGUgaWQ9InRpdGxlNjYxNzQiPnBhdGgxNTE0NDwvdGl0bGU+JiN4YTsJCQk8cGF0aCBpZD0icGF0aDY2MTc2IiBpbmtzY2FwZTpjb25uZWN0b3ItY3VydmF0dXJlPSIwIiBzdHlsZT0iZmlsbDojNTU2QThBOyIgZD0iTTEzLjM1LDM2LjNsLTIuMTIsMi4xM2wtMS44LDAuMzFsMC4yMS0xLjkxICAgICBsMi4xMi0yLjEyYy0xLjI5LTAuNS0yLjc1LTAuMjYtMy44MiwwLjYzYy0wLjg5LDEtMS4wNywyLjQ1LTAuNDMsMy42M2wtNy4yNiw3LjI2Yy0wLjM4LDAuNDYtMC4zMywxLjE0LDAuMTMsMS41MiAgICAgYzAuMDEsMC4wMSwwLjAxLDAuMDEsMC4wMiwwLjAyYzAuMzMsMC40MSwwLjkyLDAuNDgsMS4zMywwLjE1YzAuMDQtMC4wMywwLjA3LTAuMDYsMC4xLTAuMWw3LjI3LTcuMjYgICAgIGMxLjE3LDAuNjMsMi42MiwwLjQ1LDMuNjEtMC40M0MxMy42LDM5LjA2LDEzLjg1LDM3LjYsMTMuMzUsMzYuM3oiLz4mI3hhOwkJPC9nPiYjeGE7CQk8ZyBpZD0ic2hhcGU1MDY0LTgiIHRyYW5zZm9ybT0idHJhbnNsYXRlKDE1LC0xNS4zOTc0KSI+JiN4YTsJCQk8dGl0bGUgaWQ9InRpdGxlNjYxNzkiPnBhdGgxNTE0NjwvdGl0bGU+JiN4YTsJCQk8cGF0aCBpZD0icGF0aDY2MTgxIiBpbmtzY2FwZTpjb25uZWN0b3ItY3VydmF0dXJlPSIwIiBzdHlsZT0iZmlsbDojMkJDN0Y0OyIgZD0iTTcuMDQsNDAuODZsLTIuOC0yLjhsLTAuNTMtMS41OWwtMi42NS0xLjU5ICAgICBMMCwzNS45M2wxLjU5LDIuNjZsMS41OSwwLjUzTDYsNDEuOTJjLTAuMTQsMC41MSwwLjAxLDEuMDYsMC4zOCwxLjQ0bDQuNzcsNC43N2MwLjU5LDAuNTksMS41NCwwLjU4LDIuMTMsMCAgICAgYzAuNTktMC41OSwwLjU4LTEuNTQsMC0yLjEzYzAsMCwwLDAsMCwwTDguNSw0MS4yM0M4LjEyLDQwLjg1LDcuNTYsNDAuNzEsNy4wNCw0MC44NnoiLz4mI3hhOwkJPC9nPiYjeGE7CTwvZz4mI3hhOzwvZz4mI3hhOzwvc3ZnPg==;" parent="1" vertex="1">
          <mxGeometry x="380" y="213" width="47" height="47" as="geometry" />
        </mxCell>
        <mxCell id="BkMy49ze9qn0hu9Yu05o-18" value="user brower &#xa;&amp; interaction" style="shape=image;verticalLabelPosition=bottom;labelBackgroundColor=#ffffff;verticalAlign=top;aspect=fixed;imageAspect=0;image=data:image/svg+xml,PHN2ZyB4bWxuczpjYz0iaHR0cDovL2NyZWF0aXZlY29tbW9ucy5vcmcvbnMjIiB4bWxuczpkYz0iaHR0cDovL3B1cmwub3JnL2RjL2VsZW1lbnRzLzEuMS8iIHhtbG5zOmlua3NjYXBlPSJodHRwOi8vd3d3Lmlua3NjYXBlLm9yZy9uYW1lc3BhY2VzL2lua3NjYXBlIiB4bWxuczpyZGY9Imh0dHA6Ly93d3cudzMub3JnLzE5OTkvMDIvMjItcmRmLXN5bnRheC1ucyMiIHhtbG5zOnNvZGlwb2RpPSJodHRwOi8vc29kaXBvZGkuc291cmNlZm9yZ2UubmV0L0RURC9zb2RpcG9kaS0wLmR0ZCIgeG1sbnM6c3ZnPSJodHRwOi8vd3d3LnczLm9yZy8yMDAwL3N2ZyIgeG1sbnM9Imh0dHA6Ly93d3cudzMub3JnLzIwMDAvc3ZnIiB4bWxuczp4bGluaz0iaHR0cDovL3d3dy53My5vcmcvMTk5OS94bGluayIgdmVyc2lvbj0iMS4xIiBpZD0ic3ZnNTk4MDUiIGlua3NjYXBlOnZlcnNpb249IjAuOTIuMyAoMjQwNTU0NiwgMjAxOC0wMy0xMSkiIHNvZGlwb2RpOmRvY25hbWU9ImJyb3dzZXIuc3ZnIiB4PSIwcHgiIHk9IjBweCIgdmlld0JveD0iMCAwIDg4LjE3IDc3LjA1IiBzdHlsZT0iZW5hYmxlLWJhY2tncm91bmQ6bmV3IDAgMCA4OC4xNyA3Ny4wNTsiIHhtbDpzcGFjZT0icHJlc2VydmUiPiYjeGE7PHNvZGlwb2RpOm5hbWVkdmlldyBib3JkZXJjb2xvcj0iIzY2NjY2NiIgYm9yZGVyb3BhY2l0eT0iMSIgZml0LW1hcmdpbi1ib3R0b209IjAiIGZpdC1tYXJnaW4tbGVmdD0iMCIgZml0LW1hcmdpbi1yaWdodD0iMCIgZml0LW1hcmdpbi10b3A9IjAiIGdyaWR0b2xlcmFuY2U9IjEwIiBndWlkZXRvbGVyYW5jZT0iMTAiIGlkPSJuYW1lZHZpZXc1OTgwNyIgaW5rc2NhcGU6Y3VycmVudC1sYXllcj0ic3ZnNTk4MDUiIGlua3NjYXBlOmN4PSI1OC43NzgxMjUiIGlua3NjYXBlOmN5PSI1MS4zNjIyMTUiIGlua3NjYXBlOnBhZ2VvcGFjaXR5PSIwIiBpbmtzY2FwZTpwYWdlc2hhZG93PSIyIiBpbmtzY2FwZTp3aW5kb3ctaGVpZ2h0PSIxMDE3IiBpbmtzY2FwZTp3aW5kb3ctbWF4aW1pemVkPSIxIiBpbmtzY2FwZTp3aW5kb3ctd2lkdGg9IjE5MjAiIGlua3NjYXBlOndpbmRvdy14PSItOCIgaW5rc2NhcGU6d2luZG93LXk9Ii04IiBpbmtzY2FwZTp6b29tPSI4LjA5ODMyMjkiIG9iamVjdHRvbGVyYW5jZT0iMTAiIHBhZ2Vjb2xvcj0iI2ZmZmZmZiIgc2hvd2dyaWQ9ImZhbHNlIj4mI3hhOwk8L3NvZGlwb2RpOm5hbWVkdmlldz4mI3hhOzxnIGlkPSJnNTk4MDMiIHRyYW5zZm9ybT0idHJhbnNsYXRlKC0xLjYyMDkzLC0xLjYxODgxKSI+JiN4YTsJPHRpdGxlIGlkPSJ0aXRsZTU5NzY4Ij5QYWdlLTE8L3RpdGxlPiYjeGE7CTxnIGlkPSJncm91cDUyMzMtMSIgdHJhbnNmb3JtPSJ0cmFuc2xhdGUoMS42MjA5MywtMS42MjA5MykiPiYjeGE7CQk8dGl0bGUgaWQ9InRpdGxlNTk3NzAiPkJyb3dzZXI8L3RpdGxlPiYjeGE7CQk8ZyBpZD0ic2hhcGU1MjM0LTIiPiYjeGE7CQkJPHRpdGxlIGlkPSJ0aXRsZTU5NzcyIj5wYXRoMzM3PC90aXRsZT4mI3hhOwkJCTxwYXRoIGlkPSJwYXRoNTk3NzQiIGlua3NjYXBlOmNvbm5lY3Rvci1jdXJ2YXR1cmU9IjAiIHN0eWxlPSJmaWxsOiM1OUI0RDk7IiBkPSJNMCw3Ni43N2MwLjAxLDEuOTQsMS41OSwzLjUyLDMuNTMsMy41Mmg4MS4xMSAgICAgYzEuOTQsMCwzLjUyLTEuNTgsMy41My0zLjUydi01NS4ySDBWNzYuNzd6Ii8+JiN4YTsJCTwvZz4mI3hhOwkJPGcgaWQ9InNoYXBlNTIzNS00IiB0cmFuc2Zvcm09InRyYW5zbGF0ZSgwLC01NC44NDU5KSI+JiN4YTsJCQk8dGl0bGUgaWQ9InRpdGxlNTk3NzciPnBhdGgzMzk8L3RpdGxlPiYjeGE7CQkJPHBhdGggaWQ9InBhdGg1OTc3OSIgaW5rc2NhcGU6Y29ubmVjdG9yLWN1cnZhdHVyZT0iMCIgc3R5bGU9ImZpbGw6I0EwQTFBMjsiIGQ9Ik04NC42NCw1OC4wOUgzLjUzYy0xLjk0LDAtMy41MiwxLjU4LTMuNTMsMy41MiAgICAgdjE4LjY4aDg4LjE3VjYxLjYxQzg4LjE2LDU5LjY3LDg2LjU4LDU4LjA5LDg0LjY0LDU4LjA5eiIvPiYjeGE7CQk8L2c+JiN4YTsJCTxnIGlkPSJzaGFwZTUyMzYtNiIgdHJhbnNmb3JtPSJ0cmFuc2xhdGUoMCwtMS45NDAyNikiPiYjeGE7CQkJPHRpdGxlIGlkPSJ0aXRsZTU5NzgyIj5wYXRoMzQxPC90aXRsZT4mI3hhOwkJCTxwYXRoIGlkPSJwYXRoNTk3ODQiIGlua3NjYXBlOmNvbm5lY3Rvci1jdXJ2YXR1cmU9IjAiIHN0eWxlPSJmaWxsOiNGRkZGRkY7ZmlsbC1vcGFjaXR5OjAuMjsiIGQ9Ik0zLjUzLDUuMTggICAgIEMxLjU5LDUuMTgsMC4wMSw2Ljc2LDAsOC43djY4LjA3YzAuMDEsMS45NCwxLjU5LDMuNTIsMy41MywzLjUyaDMuODhMNzYuODgsNS4xOEgzLjUzeiIvPiYjeGE7CQk8L2c+JiN4YTsJCTxnIGlkPSJzaGFwZTUyMzctOCIgdHJhbnNmb3JtPSJ0cmFuc2xhdGUoMjIuNzQ4MiwtNjEuNzE3MSkiPiYjeGE7CQkJPHRpdGxlIGlkPSJ0aXRsZTU5Nzg3Ij5yZWN0MzQzPC90aXRsZT4mI3hhOwkJCTxyZWN0IGlkPSJyZWN0NTk3ODkiIHg9IjAiIHk9IjczLjQyIiBzdHlsZT0iZmlsbDojRkZGRkZGOyIgd2lkdGg9IjU5LjQzIiBoZWlnaHQ9IjYuODgiLz4mI3hhOwkJPC9nPiYjeGE7CQk8ZyBpZD0ic2hhcGU1MjM4LTEwIiB0cmFuc2Zvcm09InRyYW5zbGF0ZSg1LjE3NDY5LC01OS4xMzQpIj4mI3hhOwkJCTx0aXRsZSBpZD0idGl0bGU1OTc5MiI+cGF0aDM0NTwvdGl0bGU+JiN4YTsJCQk8cGF0aCBpZD0icGF0aDU5Nzk0IiBpbmtzY2FwZTpjb25uZWN0b3ItY3VydmF0dXJlPSIwIiBzdHlsZT0iZmlsbDojNTlCNEQ5OyIgZD0iTTE0Ljc1LDc0LjE4YzAsNC43Ny0zLjg3LDguNjQtOC42NCw4LjY0ICAgICBzLTguNjQtMy44Ny04LjY0LTguNjRjMC00Ljc3LDMuODctOC42NCw4LjY0LTguNjRjMCwwLDAsMCwwLDBDMTAuODgsNjUuNTUsMTQuNzQsNjkuNDEsMTQuNzUsNzQuMTh6Ii8+JiN4YTsJCTwvZz4mI3hhOwkJPGcgaWQ9InNoYXBlNTIzOS0xMiIgdHJhbnNmb3JtPSJ0cmFuc2xhdGUoNy4wNTI2OSwtNjAuMTMwMikiPiYjeGE7CQkJPHRpdGxlIGlkPSJ0aXRsZTU5Nzk3Ij5wb2x5Z29uMzQ3PC90aXRsZT4mI3hhOwkJCTxwYXRoIGlkPSJwYXRoNTk3OTkiIGlua3NjYXBlOmNvbm5lY3Rvci1jdXJ2YXR1cmU9IjAiIHN0eWxlPSJmaWxsOiNGRkZGRkY7IiBkPSJNNy4yMyw4MC4yOUg1LjExTDAsNzUuMzZsNS4xMS00Ljk0aDIuMTIgICAgIGwtMy44OCw0LjA2aDkuNTJ2MS43NkgzLjM1TDcuMjMsODAuMjl6Ii8+JiN4YTsJCTwvZz4mI3hhOwk8L2c+JiN4YTs8L2c+JiN4YTs8L3N2Zz4=;" parent="1" vertex="1">
          <mxGeometry x="389.5" y="80" width="57" height="50" as="geometry" />
        </mxCell>
        <mxCell id="BkMy49ze9qn0hu9Yu05o-19" value="API &#xa;service" style="shape=image;verticalLabelPosition=bottom;labelBackgroundColor=#ffffff;verticalAlign=top;aspect=fixed;imageAspect=0;image=data:image/svg+xml,PHN2ZyB4bWxuczpjYz0iaHR0cDovL2NyZWF0aXZlY29tbW9ucy5vcmcvbnMjIiB4bWxuczpkYz0iaHR0cDovL3B1cmwub3JnL2RjL2VsZW1lbnRzLzEuMS8iIHhtbG5zOmlua3NjYXBlPSJodHRwOi8vd3d3Lmlua3NjYXBlLm9yZy9uYW1lc3BhY2VzL2lua3NjYXBlIiB4bWxuczpyZGY9Imh0dHA6Ly93d3cudzMub3JnLzE5OTkvMDIvMjItcmRmLXN5bnRheC1ucyMiIHhtbG5zOnNvZGlwb2RpPSJodHRwOi8vc29kaXBvZGkuc291cmNlZm9yZ2UubmV0L0RURC9zb2RpcG9kaS0wLmR0ZCIgeG1sbnM6c3ZnPSJodHRwOi8vd3d3LnczLm9yZy8yMDAwL3N2ZyIgeG1sbnM9Imh0dHA6Ly93d3cudzMub3JnLzIwMDAvc3ZnIiB4bWxuczp4bGluaz0iaHR0cDovL3d3dy53My5vcmcvMTk5OS94bGluayIgdmVyc2lvbj0iMS4xIiBpZD0ic3ZnMTk4MDc4IiBpbmtzY2FwZTp2ZXJzaW9uPSIwLjkyLjMgKDI0MDU1NDYsIDIwMTgtMDMtMTEpIiBzb2RpcG9kaTpkb2NuYW1lPSJyZXN0LnN2ZyIgeD0iMHB4IiB5PSIwcHgiIHZpZXdCb3g9IjAgMCA1Ny42NSA1Ny42NSIgc3R5bGU9ImVuYWJsZS1iYWNrZ3JvdW5kOm5ldyAwIDAgNTcuNjUgNTcuNjU7IiB4bWw6c3BhY2U9InByZXNlcnZlIj4mI3hhOzxzb2RpcG9kaTpuYW1lZHZpZXcgYm9yZGVyY29sb3I9IiM2NjY2NjYiIGJvcmRlcm9wYWNpdHk9IjEiIGZpdC1tYXJnaW4tYm90dG9tPSIwIiBmaXQtbWFyZ2luLWxlZnQ9IjAiIGZpdC1tYXJnaW4tcmlnaHQ9IjAiIGZpdC1tYXJnaW4tdG9wPSIwIiBncmlkdG9sZXJhbmNlPSIxMCIgZ3VpZGV0b2xlcmFuY2U9IjEwIiBpZD0ibmFtZWR2aWV3MTk4MDgwIiBpbmtzY2FwZTpjdXJyZW50LWxheWVyPSJzdmcxOTgwNzgiIGlua3NjYXBlOmN4PSIzOC40MzAyMyIgaW5rc2NhcGU6Y3k9IjM4LjQzNjQ5NiIgaW5rc2NhcGU6cGFnZW9wYWNpdHk9IjAiIGlua3NjYXBlOnBhZ2VzaGFkb3c9IjIiIGlua3NjYXBlOndpbmRvdy1oZWlnaHQ9IjEwMTciIGlua3NjYXBlOndpbmRvdy1tYXhpbWl6ZWQ9IjEiIGlua3NjYXBlOndpbmRvdy13aWR0aD0iMTkyMCIgaW5rc2NhcGU6d2luZG93LXg9Ii04IiBpbmtzY2FwZTp3aW5kb3cteT0iLTgiIGlua3NjYXBlOnpvb209IjguOTE0MjA2OSIgb2JqZWN0dG9sZXJhbmNlPSIxMCIgcGFnZWNvbG9yPSIjZmZmZmZmIiBzaG93Z3JpZD0iZmFsc2UiPiYjeGE7CTwvc29kaXBvZGk6bmFtZWR2aWV3PiYjeGE7PGcgaWQ9ImcxOTgwNzYiIHRyYW5zZm9ybT0idHJhbnNsYXRlKC03LjY1LC03LjY1MDAwMTEpIj4mI3hhOwk8dGl0bGUgaWQ9InRpdGxlMTk4MDM4Ij5QYWdlLTE8L3RpdGxlPiYjeGE7CTxnIGlkPSJncm91cDEwNjktMSIgdHJhbnNmb3JtPSJ0cmFuc2xhdGUoNy42NSwtNy42NSkiPiYjeGE7CQk8dGl0bGUgaWQ9InRpdGxlMTk4MDQwIj5SRVNUPC90aXRsZT4mI3hhOwkJPGcgaWQ9InNoYXBlMTA3MC0yIj4mI3hhOwkJCTx0aXRsZSBpZD0idGl0bGUxOTgwNDIiPlNoZWV0LjEwNzA8L3RpdGxlPiYjeGE7CQkJPGNpcmNsZSBpZD0iZWxsaXBzZTE5ODA0NCIgc3R5bGU9ImZpbGw6IzEwN0MxMDsiIGN4PSIyOC44MiIgY3k9IjQ0LjEyIiByPSIyOC44MiIvPiYjeGE7CQk8L2c+JiN4YTsJCTxnIGlkPSJzaGFwZTEwNzEtNCI+JiN4YTsJCQk8dGl0bGUgaWQ9InRpdGxlMTk4MDQ3Ij5TaGVldC4xMDcxPC90aXRsZT4mI3hhOwkJCTxwYXRoIGlkPSJwYXRoMTk4MDQ5IiBpbmtzY2FwZTpjb25uZWN0b3ItY3VydmF0dXJlPSIwIiBzdHlsZT0iZmlsbDojMDA0QjFDOyIgZD0iTTguODYsMjMuMzdDMy4zOSwyOC42MywwLDM1Ljk4LDAsNDQuMTIgICAgIGMwLDE1LjkzLDEyLjksMjguODMsMjguODIsMjguODNjOC4xNSwwLDE1LjQ5LTMuMzksMjAuNzUtOC44N0w4Ljg2LDIzLjM3eiIvPiYjeGE7CQk8L2c+JiN4YTsJCTxnIGlkPSJncm91cDEwNzItNiIgdHJhbnNmb3JtPSJ0cmFuc2xhdGUoNi42NzI0NCwtMjAuOTk4NykiPiYjeGE7CQkJPHRpdGxlIGlkPSJ0aXRsZTE5ODA1MiI+U2hlZXQuMTA3MjwvdGl0bGU+JiN4YTsJCQk8ZyBpZD0ic2hhcGUxMDczLTciIHRyYW5zZm9ybT0idHJhbnNsYXRlKDAsLTAuMjU1ODAxKSI+JiN4YTsJCQkJPHRpdGxlIGlkPSJ0aXRsZTE5ODA1NCI+U2hlZXQuMTA3MzwvdGl0bGU+JiN4YTsJCQkJPHBhdGggaWQ9InBhdGgxOTgwNTYiIGlua3NjYXBlOmNvbm5lY3Rvci1jdXJ2YXR1cmU9IjAiIHN0eWxlPSJmaWxsOiNGRkZGRkY7IiBkPSJNMTAuODUsNzIuOTVIOC43NEw2LjIxLDY4LjcgICAgICBjLTAuMjQtMC4zOS0wLjQ2LTAuNzMtMC42OC0xLjAxYy0wLjIyLTAuMjctMC40NC0wLjUtMC42Ny0wLjY4Yy0wLjIzLTAuMTctMC40Ny0wLjMtMC43NC0wLjM4Yy0wLjI2LTAuMDgtMC41Ni0wLjEyLTAuODktMC4xMiAgICAgIEgxLjc3djYuNDRIMFY1Ny44MWg0LjUyYzAuNjYsMCwxLjI3LDAuMDgsMS44MywwLjI1YzAuNTYsMC4xNiwxLjA0LDAuNDEsMS40NiwwLjc1YzAuNDEsMC4zNCwwLjczLDAuNzYsMC45NiwxLjI2ICAgICAgYzAuMjMsMC41MSwwLjM1LDEuMDksMC4zNSwxLjc3YzAsMC41My0wLjA4LDEuMDEtMC4yNCwxLjQ1Yy0wLjE2LDAuNDQtMC4zOCwwLjgzLTAuNjcsMS4xOGMtMC4zLDAuMzQtMC42NSwwLjY0LTEuMDYsMC44OCAgICAgIHMtMC44NywwLjQzLTEuMzksMC41NnYwLjA1YzAuMjYsMC4xMSwwLjQ4LDAuMjQsMC42NiwwLjM4YzAuMTksMC4xNSwwLjM3LDAuMzIsMC41NCwwLjUxYzAuMTYsMC4yLDAuMzMsMC40MiwwLjUsMC42NyAgICAgIGMwLjE2LDAuMjUsMC4zNSwwLjU0LDAuNTUsMC44OEwxMC44NSw3Mi45NXogTTEuNzcsNTkuNDF2NS40OWgyLjQxYzAuNDQsMCwwLjg1LTAuMDcsMS4yMy0wLjJzMC43LTAuMzIsMC45OC0wLjU3ICAgICAgYzAuMjctMC4yNSwwLjQ5LTAuNTYsMC42NC0wLjkyYzAuMTYtMC4zNiwwLjIzLTAuNzcsMC4yMy0xLjIyYzAtMC44MS0wLjI2LTEuNDQtMC43OC0xLjljLTAuNTMtMC40NS0xLjI5LTAuNjgtMi4yOC0wLjY4SDEuNzd6ICAgICAgIi8+JiN4YTsJCQk8L2c+JiN4YTsJCQk8ZyBpZD0ic2hhcGUxMDc0LTkiIHRyYW5zZm9ybT0idHJhbnNsYXRlKDEyLjkzMDYsLTAuMjU1ODAxKSI+JiN4YTsJCQkJPHRpdGxlIGlkPSJ0aXRsZTE5ODA1OSI+U2hlZXQuMTA3NDwvdGl0bGU+JiN4YTsJCQkJPHBhdGggaWQ9InBhdGgxOTgwNjEiIGlua3NjYXBlOmNvbm5lY3Rvci1jdXJ2YXR1cmU9IjAiIHN0eWxlPSJmaWxsOiNGRkZGRkY7IiBkPSJNOC4wMiw3Mi45NUgwVjU3LjgxaDcuNjh2MS42SDEuNzd2NS4wNGg1LjQ3ICAgICAgdjEuNTlIMS43N3Y1LjNoNi4yNVY3Mi45NXoiLz4mI3hhOwkJCTwvZz4mI3hhOwkJCTxnIGlkPSJzaGFwZTEwNzUtMTEiIHRyYW5zZm9ybT0idHJhbnNsYXRlKDIzLjE1ODMpIj4mI3hhOwkJCQk8dGl0bGUgaWQ9InRpdGxlMTk4MDY0Ij5TaGVldC4xMDc1PC90aXRsZT4mI3hhOwkJCQk8cGF0aCBpZD0icGF0aDE5ODA2NiIgaW5rc2NhcGU6Y29ubmVjdG9yLWN1cnZhdHVyZT0iMCIgc3R5bGU9ImZpbGw6I0ZGRkZGRjsiIGQ9Ik0wLDcyLjA4di0yLjA5YzAuMjQsMC4yMSwwLjUzLDAuNCwwLjg2LDAuNTcgICAgICBzMC42OSwwLjMxLDEuMDYsMC40M2MwLjM3LDAuMTEsMC43NCwwLjIsMS4xMSwwLjI2YzAuMzcsMC4wNywwLjcyLDAuMSwxLjAzLDAuMWMxLjA5LDAsMS45MS0wLjIsMi40NS0wLjYxICAgICAgYzAuNTQtMC40LDAuODEtMC45OCwwLjgxLTEuNzRjMC0wLjQxLTAuMDktMC43Ny0wLjI3LTEuMDdjLTAuMTgtMC4zLTAuNDMtMC41OC0wLjc1LTAuODNjLTAuMzItMC4yNS0wLjY5LTAuNDktMS4xMi0wLjcyICAgICAgYy0wLjQ0LTAuMjItMC45LTAuNDctMS40LTAuNzJjLTAuNTMtMC4yNy0xLjAyLTAuNTQtMS40OC0wLjgxYy0wLjQ2LTAuMjgtMC44NS0wLjU4LTEuMTktMC45MXMtMC42LTAuNzEtMC44LTEuMTIgICAgICBjLTAuMTktMC40Mi0wLjI5LTAuOTEtMC4yOS0xLjQ4YzAtMC42OSwwLjE1LTEuMjksMC40NS0xLjhjMC4zMS0wLjUxLDAuNzEtMC45MywxLjItMS4yNmMwLjQ5LTAuMzMsMS4wNS0wLjU3LDEuNjgtMC43NCAgICAgIGMwLjYzLTAuMTYsMS4yNy0wLjI0LDEuOTMtMC4yNGMxLjQ5LDAsMi41OCwwLjE4LDMuMjYsMC41NHYyYy0wLjktMC42Mi0yLjA0LTAuOTMtMy40NC0wLjkzYy0wLjM5LDAtMC43OCwwLjA0LTEuMTYsMC4xMiAgICAgIGMtMC4zOSwwLjA4LTAuNzQsMC4yMS0xLjA0LDAuMzljLTAuMywwLjE5LTAuNTUsMC40Mi0wLjc0LDAuNzFzLTAuMjgsMC42NC0wLjI4LDEuMDZjMCwwLjM4LDAuMDcsMC43MiwwLjIxLDEgICAgICBjMC4xNSwwLjI4LDAuMzYsMC41NCwwLjY0LDAuNzdzMC42MywwLjQ2LDEuMDMsMC42N2MwLjQxLDAuMjIsMC44NywwLjQ2LDEuNCwwLjcyQzUuNyw2NC42Miw2LjIyLDY0LjksNi43LDY1LjIgICAgICBjMC40OSwwLjI5LDAuOTEsMC42MiwxLjI4LDAuOThjMC4zNiwwLjM2LDAuNjUsMC43NiwwLjg3LDEuMTljMC4yMSwwLjQ0LDAuMzIsMC45NCwwLjMyLDEuNWMwLDAuNzUtMC4xNSwxLjM4LTAuNDQsMS44OSAgICAgIGMtMC4yOSwwLjUyLTAuNjgsMC45NC0xLjE4LDEuMjdjLTAuNSwwLjMyLTEuMDcsMC41NS0xLjcxLDAuN2MtMC42NSwwLjE0LTEuMzQsMC4yMi0yLjA1LDAuMjJjLTAuMjQsMC0wLjU0LTAuMDItMC44OS0wLjA2ICAgICAgcy0wLjcxLTAuMS0xLjA4LTAuMTdjLTAuMzYtMC4wOC0wLjcxLTAuMTctMS4wNC0wLjI4QzAuNDYsNzIuMzMsMC4yLDcyLjIxLDAsNzIuMDh6Ii8+JiN4YTsJCQk8L2c+JiN4YTsJCQk8ZyBpZD0ic2hhcGUxMDc2LTEzIiB0cmFuc2Zvcm09InRyYW5zbGF0ZSgzMy43OTgxLC0wLjI1NTgwMSkiPiYjeGE7CQkJCTx0aXRsZSBpZD0idGl0bGUxOTgwNjkiPlNoZWV0LjEwNzY8L3RpdGxlPiYjeGE7CQkJCTxwYXRoIGlkPSJwYXRoMTk4MDcxIiBpbmtzY2FwZTpjb25uZWN0b3ItY3VydmF0dXJlPSIwIiBzdHlsZT0iZmlsbDojRkZGRkZGOyIgZD0iTTEwLjUsNTkuNDFINi4xM3YxMy41NEg0LjM2VjU5LjQxSDB2LTEuNiAgICAgIGgxMC41VjU5LjQxeiIvPiYjeGE7CQkJPC9nPiYjeGE7CQk8L2c+JiN4YTsJPC9nPiYjeGE7PC9nPiYjeGE7PC9zdmc+;" parent="1" vertex="1">
          <mxGeometry x="471" y="211" width="49" height="49" as="geometry" />
        </mxCell>
        <mxCell id="BkMy49ze9qn0hu9Yu05o-20" value="logging&#xa;service" style="shape=image;verticalLabelPosition=bottom;labelBackgroundColor=#ffffff;verticalAlign=top;aspect=fixed;imageAspect=0;image=data:image/svg+xml,PHN2ZyB4bWxuczpjYz0iaHR0cDovL2NyZWF0aXZlY29tbW9ucy5vcmcvbnMjIiB4bWxuczpkYz0iaHR0cDovL3B1cmwub3JnL2RjL2VsZW1lbnRzLzEuMS8iIHhtbG5zOmlua3NjYXBlPSJodHRwOi8vd3d3Lmlua3NjYXBlLm9yZy9uYW1lc3BhY2VzL2lua3NjYXBlIiB4bWxuczpyZGY9Imh0dHA6Ly93d3cudzMub3JnLzE5OTkvMDIvMjItcmRmLXN5bnRheC1ucyMiIHhtbG5zOnNvZGlwb2RpPSJodHRwOi8vc29kaXBvZGkuc291cmNlZm9yZ2UubmV0L0RURC9zb2RpcG9kaS0wLmR0ZCIgeG1sbnM6c3ZnPSJodHRwOi8vd3d3LnczLm9yZy8yMDAwL3N2ZyIgeG1sbnM9Imh0dHA6Ly93d3cudzMub3JnLzIwMDAvc3ZnIiB4bWxuczp4bGluaz0iaHR0cDovL3d3dy53My5vcmcvMTk5OS94bGluayIgdmVyc2lvbj0iMS4xIiBpZD0ic3ZnMTQ0NDQ2IiBpbmtzY2FwZTp2ZXJzaW9uPSIwLjkyLjMgKDI0MDU1NDYsIDIwMTgtMDMtMTEpIiBzb2RpcG9kaTpkb2NuYW1lPSJkZWRpY2F0ZWRfaG9zdGluZy5zdmciIHg9IjBweCIgeT0iMHB4IiB2aWV3Qm94PSIwIDAgNTIuODUgNTEuNTQiIHN0eWxlPSJlbmFibGUtYmFja2dyb3VuZDpuZXcgMCAwIDUyLjg1IDUxLjU0OyIgeG1sOnNwYWNlPSJwcmVzZXJ2ZSI+JiN4YTs8c29kaXBvZGk6bmFtZWR2aWV3IGJvcmRlcmNvbG9yPSIjNjY2NjY2IiBib3JkZXJvcGFjaXR5PSIxIiBmaXQtbWFyZ2luLWJvdHRvbT0iMCIgZml0LW1hcmdpbi1sZWZ0PSIwIiBmaXQtbWFyZ2luLXJpZ2h0PSIwIiBmaXQtbWFyZ2luLXRvcD0iMCIgZ3JpZHRvbGVyYW5jZT0iMTAiIGd1aWRldG9sZXJhbmNlPSIxMCIgaWQ9Im5hbWVkdmlldzE0NDQ0OCIgaW5rc2NhcGU6Y3VycmVudC1sYXllcj0ic3ZnMTQ0NDQ2IiBpbmtzY2FwZTpjeD0iMzUuMjM2MzE2IiBpbmtzY2FwZTpjeT0iMzQuMzYwNTM0IiBpbmtzY2FwZTpwYWdlb3BhY2l0eT0iMCIgaW5rc2NhcGU6cGFnZXNoYWRvdz0iMiIgaW5rc2NhcGU6d2luZG93LWhlaWdodD0iMTAxNyIgaW5rc2NhcGU6d2luZG93LW1heGltaXplZD0iMSIgaW5rc2NhcGU6d2luZG93LXdpZHRoPSIxOTIwIiBpbmtzY2FwZTp3aW5kb3cteD0iLTgiIGlua3NjYXBlOndpbmRvdy15PSItOCIgaW5rc2NhcGU6em9vbT0iMTIuNjE2NTk3IiBvYmplY3R0b2xlcmFuY2U9IjEwIiBwYWdlY29sb3I9IiNmZmZmZmYiIHNob3dncmlkPSJmYWxzZSI+JiN4YTsJPC9zb2RpcG9kaTpuYW1lZHZpZXc+JiN4YTs8ZyBpZD0iZzE0NDQ0NCIgdHJhbnNmb3JtPSJ0cmFuc2xhdGUoLTIuMDIzNTM2N2UtNiwwLjAwNDg2MTk4KSI+JiN4YTsJPHRpdGxlIGlkPSJ0aXRsZTE0NDQwNCI+UGFnZS0xPC90aXRsZT4mI3hhOwk8ZyBpZD0iZ3JvdXA5MzY5LTEiIHRyYW5zZm9ybT0idHJhbnNsYXRlKDAuNjEyNDMyLC0wLjYxMjQzMikiPiYjeGE7CQk8dGl0bGUgaWQ9InRpdGxlMTQ0NDA2Ij5EZWRpY2F0ZWQgSG9zdGluZzwvdGl0bGU+JiN4YTsJCTxnIGlkPSJzaGFwZTkzNzAtMiI+JiN4YTsJCQk8dGl0bGUgaWQ9InRpdGxlMTQ0NDA4Ij5TaGVldC45MzcwPC90aXRsZT4mI3hhOwkJCSYjeGE7CQkJCTxwYXRoIGlkPSJwYXRoMTQ0NDEwIiBpbmtzY2FwZTpjb25uZWN0b3ItY3VydmF0dXJlPSIwIiBzdHlsZT0iZmlsbDpub25lO3N0cm9rZTojM0Y1NzY1O3N0cm9rZS13aWR0aDoxLjIyNDk7c3Ryb2tlLWxpbmVjYXA6cm91bmQ7c3Ryb2tlLWxpbmVqb2luOnJvdW5kO3N0cm9rZS1taXRlcmxpbWl0OjM7IiBkPSIgICAgIE0yNS44MSw1MS41NEgwVjEuMjJoNTEuNjN2NTAuMzJIMjUuODEiLz4mI3hhOwkJPC9nPiYjeGE7CQk8ZyBpZD0ic2hhcGU5MzcxLTUiIHRyYW5zZm9ybT0idHJhbnNsYXRlKDEyLjIyODEsLTguMTU5MSkiPiYjeGE7CQkJPHRpdGxlIGlkPSJ0aXRsZTE0NDQxMyI+U2hlZXQuOTM3MTwvdGl0bGU+JiN4YTsJCQkmI3hhOwkJCQk8cGF0aCBpZD0icGF0aDE0NDQxNSIgaW5rc2NhcGU6Y29ubmVjdG9yLWN1cnZhdHVyZT0iMCIgc3R5bGU9ImZpbGw6bm9uZTtzdHJva2U6IzNGNTc2NTtzdHJva2Utd2lkdGg6MS4yMjQ5O3N0cm9rZS1saW5lY2FwOnJvdW5kO3N0cm9rZS1saW5lam9pbjpyb3VuZDtzdHJva2UtbWl0ZXJsaW1pdDozOyIgZD0iICAgICBNMTMuNTksNTEuNTRIMHYtOS41MmgyNy4xN3Y5LjUySDEzLjU5Ii8+JiN4YTsJCTwvZz4mI3hhOwkJPGcgaWQ9InNoYXBlOTM3Mi04IiB0cmFuc2Zvcm09InRyYW5zbGF0ZSgzMi42MDgyLC0xMi4yMzg2KSI+JiN4YTsJCQk8dGl0bGUgaWQ9InRpdGxlMTQ0NDE4Ij5TaGVldC45MzcyPC90aXRsZT4mI3hhOwkJCSYjeGE7CQkJCTxwYXRoIGlkPSJwYXRoMTQ0NDIwIiBpbmtzY2FwZTpjb25uZWN0b3ItY3VydmF0dXJlPSIwIiBzdHlsZT0iZmlsbDpub25lO3N0cm9rZTojM0Y1NzY1O3N0cm9rZS13aWR0aDoxLjIyNDk7c3Ryb2tlLWxpbmVjYXA6cm91bmQ7c3Ryb2tlLWxpbmVqb2luOnJvdW5kO3N0cm9rZS1taXRlcmxpbWl0OjM7IiBkPSIgICAgIE0yLjcyLDUwLjg2YzAsMC4xNy0wLjA5LDAuMjUtMC4xNywwLjM0Yy0wLjE3LDAuMTctMC4yNiwwLjE3LTAuNTEsMC4yNWMtMC4xNywwLjA5LTAuNDMsMC4wOS0wLjY4LDAuMDkgICAgIGMtMC4yNiwwLTAuNDMsMC0wLjY4LTAuMDljLTAuMTctMC4wOC0wLjM0LTAuMDgtMC40My0wLjI1QzAuMDgsNTEuMTEsMCw1MS4wMywwLDUwLjg2YzAtMC4wOSwwLjA4LTAuMTcsMC4yNS0wLjM0ICAgICBjMC4wOS0wLjA5LDAuMjYtMC4xNywwLjQzLTAuMjZjMC4yNSwwLDAuNDItMC4wOCwwLjY4LTAuMDhjMC4yNSwwLDAuNTEsMC4wOCwwLjY4LDAuMDhjMC4yNSwwLjA5LDAuMzQsMC4xNywwLjUxLDAuMjYgICAgIEMyLjYzLDUwLjY5LDIuNzIsNTAuNzcsMi43Miw1MC44NiIvPiYjeGE7CQk8L2c+JiN4YTsJCTxnIGlkPSJzaGFwZTkzNzMtMTEiIHRyYW5zZm9ybT0idHJhbnNsYXRlKDEyLjIyODEsLTIwLjM5NzcpIj4mI3hhOwkJCTx0aXRsZSBpZD0idGl0bGUxNDQ0MjMiPlNoZWV0LjkzNzM8L3RpdGxlPiYjeGE7CQkJJiN4YTsJCQkJPHBhdGggaWQ9InBhdGgxNDQ0MjUiIGlua3NjYXBlOmNvbm5lY3Rvci1jdXJ2YXR1cmU9IjAiIHN0eWxlPSJmaWxsOm5vbmU7c3Ryb2tlOiMzRjU3NjU7c3Ryb2tlLXdpZHRoOjEuMjI0OTtzdHJva2UtbGluZWNhcDpyb3VuZDtzdHJva2UtbGluZWpvaW46cm91bmQ7c3Ryb2tlLW1pdGVybGltaXQ6MzsiIGQ9IiAgICAgTTEzLjU5LDUxLjU0SDB2LTkuNTJoMjcuMTd2OS41MkgxMy41OSIvPiYjeGE7CQk8L2c+JiN4YTsJCTxnIGlkPSJzaGFwZTkzNzQtMTQiIHRyYW5zZm9ybT0idHJhbnNsYXRlKDMyLjYwODIsLTI0LjQ3NzMpIj4mI3hhOwkJCTx0aXRsZSBpZD0idGl0bGUxNDQ0MjgiPlNoZWV0LjkzNzQ8L3RpdGxlPiYjeGE7CQkJJiN4YTsJCQkJPHBhdGggaWQ9InBhdGgxNDQ0MzAiIGlua3NjYXBlOmNvbm5lY3Rvci1jdXJ2YXR1cmU9IjAiIHN0eWxlPSJmaWxsOm5vbmU7c3Ryb2tlOiMzRjU3NjU7c3Ryb2tlLXdpZHRoOjEuMjI0OTtzdHJva2UtbGluZWNhcDpyb3VuZDtzdHJva2UtbGluZWpvaW46cm91bmQ7c3Ryb2tlLW1pdGVybGltaXQ6MzsiIGQ9IiAgICAgTTIuNzIsNTAuODZjMCwwLjE3LTAuMDksMC4yNS0wLjE3LDAuMzRjLTAuMTcsMC4xNy0wLjI2LDAuMTctMC41MSwwLjI1Yy0wLjE3LDAuMDktMC40MywwLjA5LTAuNjgsMC4wOSAgICAgYy0wLjI2LDAtMC40MywwLTAuNjgtMC4wOWMtMC4xNy0wLjA4LTAuMzQtMC4wOC0wLjQzLTAuMjVDMC4wOCw1MS4xMSwwLDUxLjAzLDAsNTAuODZjMC0wLjA5LDAuMDgtMC4xNywwLjI1LTAuMzQgICAgIGMwLjA5LTAuMDksMC4yNi0wLjE3LDAuNDMtMC4yNmMwLjI1LDAsMC40Mi0wLjA4LDAuNjgtMC4wOGMwLjI1LDAsMC41MSwwLjA4LDAuNjgsMC4wOGMwLjI1LDAuMDksMC4zNCwwLjE3LDAuNTEsMC4yNiAgICAgQzIuNjMsNTAuNjksMi43Miw1MC43NywyLjcyLDUwLjg2Ii8+JiN4YTsJCTwvZz4mI3hhOwkJPGcgaWQ9InNoYXBlOTM3NS0xNyIgdHJhbnNmb3JtPSJ0cmFuc2xhdGUoMTIuMjI4MSwtMzMuOTk2MikiPiYjeGE7CQkJPHRpdGxlIGlkPSJ0aXRsZTE0NDQzMyI+U2hlZXQuOTM3NTwvdGl0bGU+JiN4YTsJCQkmI3hhOwkJCQk8cGF0aCBpZD0icGF0aDE0NDQzNSIgaW5rc2NhcGU6Y29ubmVjdG9yLWN1cnZhdHVyZT0iMCIgc3R5bGU9ImZpbGw6bm9uZTtzdHJva2U6IzNGNTc2NTtzdHJva2Utd2lkdGg6MS4yMjQ5O3N0cm9rZS1saW5lY2FwOnJvdW5kO3N0cm9rZS1saW5lam9pbjpyb3VuZDtzdHJva2UtbWl0ZXJsaW1pdDozOyIgZD0iICAgICBNMTMuNTksNTEuNTRIMHYtOC4xNmgyNy4xN3Y4LjE2SDEzLjU5Ii8+JiN4YTsJCTwvZz4mI3hhOwkJPGcgaWQ9InNoYXBlOTM3Ni0yMCIgdHJhbnNmb3JtPSJ0cmFuc2xhdGUoMzIuNjA4MiwtMzYuNzE1OSkiPiYjeGE7CQkJPHRpdGxlIGlkPSJ0aXRsZTE0NDQzOCI+U2hlZXQuOTM3NjwvdGl0bGU+JiN4YTsJCQkmI3hhOwkJCQk8cGF0aCBpZD0icGF0aDE0NDQ0MCIgaW5rc2NhcGU6Y29ubmVjdG9yLWN1cnZhdHVyZT0iMCIgc3R5bGU9ImZpbGw6bm9uZTtzdHJva2U6IzNGNTc2NTtzdHJva2Utd2lkdGg6MS4yMjQ5O3N0cm9rZS1saW5lY2FwOnJvdW5kO3N0cm9rZS1saW5lam9pbjpyb3VuZDtzdHJva2UtbWl0ZXJsaW1pdDozOyIgZD0iICAgICBNMi43Miw1MC4xOGMwLDAuMjUtMC4wOSwwLjQyLTAuMTcsMC42OGMtMC4xNywwLjI1LTAuMjYsMC4zNC0wLjUxLDAuNTFjLTAuMTcsMC4wOC0wLjQzLDAuMTctMC42OCwwLjE3ICAgICBjLTAuMjYsMC0wLjQzLTAuMDktMC42OC0wLjE3Yy0wLjE3LTAuMTctMC4zNC0wLjI2LTAuNDMtMC41MUMwLjA4LDUwLjYsMCw1MC40MywwLDUwLjE4YzAtMC4yNiwwLjA4LTAuNDMsMC4yNS0wLjY4ICAgICBjMC4wOS0wLjE3LDAuMjYtMC4zNCwwLjQzLTAuNDNjMC4yNS0wLjE3LDAuNDItMC4yNSwwLjY4LTAuMjVjMC4yNSwwLDAuNTEsMC4wOCwwLjY4LDAuMjVjMC4yNSwwLjA5LDAuMzQsMC4yNiwwLjUxLDAuNDMgICAgIEMyLjYzLDQ5Ljc1LDIuNzIsNDkuOTIsMi43Miw1MC4xOCIvPiYjeGE7CQk8L2c+JiN4YTsJPC9nPiYjeGE7PC9nPiYjeGE7PC9zdmc+;" parent="1" vertex="1">
          <mxGeometry x="566.5000000000001" y="210.5000000000009" width="53" height="52" as="geometry" />
        </mxCell>
      </root>
    </mxGraphModel>
  </diagram>
</mxfile>
